<?xml version="1.0" standalone="no"?>
<!DOCTYPE svg PUBLIC "-//W3C//DTD SVG 20010904//EN"
 "http://www.w3.org/TR/2001/REC-SVG-20010904/DTD/svg10.dtd">
<svg version="1.0" xmlns="http://www.w3.org/2000/svg"
 width="1225.000000pt" height="769.000000pt" viewBox="0 0 1225.000000 769.000000"
 preserveAspectRatio="xMidYMid meet">

<g transform="translate(0.000000,769.000000) scale(0.100000,-0.100000)"
fill="#000000" stroke="none">
<path d="M7 7153 c-4 -296 -7 -2026 -7 -3845 l0 -3308 6125 0 6125 0 0 3845 0
3845 -6118 0 -6119 0 -6 -537z m10758 307 c49 -24 75 -65 75 -120 0 -46 -24
-100 -43 -100 -7 0 -22 7 -33 15 -26 20 -33 19 -27 -5 7 -25 -5 -25 -37 0 -15
11 -19 20 -11 20 16 0 65 50 57 57 -3 3 -13 -2 -22 -11 -21 -22 -40 -15 -37
13 2 11 -2 21 -7 21 -6 0 -10 -11 -10 -25 0 -29 -37 -75 -60 -75 -22 0 -40 41
-40 89 0 48 34 100 80 123 45 23 64 23 115 -2z m-9180 -40 c-3 -5 -10 -10 -16
-10 -5 0 -9 5 -9 10 0 6 7 10 16 10 8 0 12 -4 9 -10z m-465 -45 c16 -19 5 -34
-12 -17 -34 34 -90 -6 -68 -49 19 -34 60 -21 93 28 31 47 65 62 103 44 16 -7
24 -19 24 -36 0 -23 -4 -25 -40 -25 -22 0 -40 5 -40 10 0 6 14 10 31 10 38 0
35 24 -3 28 -19 2 -31 -4 -45 -24 -54 -79 -96 -94 -132 -48 -26 33 -26 49 -1
74 24 24 72 26 90 5z m266 -10 c16 -21 19 -81 5 -90 -6 -3 -11 13 -13 36 -3
49 -27 71 -55 53 -12 -7 -19 -26 -21 -53 -4 -59 -22 -40 -22 23 l0 54 46 -2
c32 -1 50 -7 60 -21z m144 -51 c0 -52 -4 -75 -15 -84 -19 -16 -63 -16 -78 -1
-9 9 -3 10 21 5 34 -7 62 8 62 33 0 11 -7 13 -26 9 -38 -10 -74 17 -74 54 0
41 24 61 71 58 l39 -3 0 -71z m47 -16 c-2 -18 -4 -4 -4 32 0 36 2 50 4 33 2
-18 2 -48 0 -65z m124 81 c15 -8 19 -20 18 -57 l-2 -47 -6 39 c-12 78 -72 74
-81 -5 l-5 -44 -7 54 c-4 30 -6 57 -4 60 7 11 68 11 87 0z m141 -6 c31 -28 22
-43 -25 -43 -53 0 -62 -8 -40 -32 18 -20 4 -25 -15 -6 -17 17 -15 58 5 80 20
22 51 23 75 1z m1839 -14 c18 -34 -30 -83 -61 -64 -14 9 -12 83 3 88 20 7 47
-4 58 -24z m161 4 c5 -25 -3 -63 -13 -63 -4 0 -7 18 -7 40 0 40 13 55 20 23z
m68 1 c0 -9 5 -12 12 -8 6 4 17 -1 25 -11 13 -18 13 -18 27 0 17 24 46 13 46
-19 0 -31 -30 -43 -47 -20 -12 17 -14 17 -25 1 -8 -10 -21 -15 -33 -11 -16 4
-21 14 -22 45 -1 21 3 39 8 39 5 0 9 -7 9 -16z m290 -23 c0 -44 -23 -62 -49
-36 -19 18 -3 51 23 49 9 -1 16 4 16 12 0 8 2 14 5 14 3 0 5 -18 5 -39z m-452
-12 c3 -26 -19 -46 -39 -33 -15 9 -10 34 6 34 8 0 15 4 15 10 0 5 -7 6 -17 3
-11 -4 -14 -3 -9 6 13 20 41 8 44 -20z m58 19 c5 -8 2 -9 -9 -5 -10 3 -17 2
-17 -2 0 -5 7 -11 15 -15 8 -3 15 -10 15 -15 0 -14 -32 -23 -44 -11 -7 7 -4
10 9 10 18 0 18 0 -1 15 -16 13 -17 16 -4 25 20 13 27 13 36 -2z m72 -21 c2
-15 -2 -27 -8 -27 -6 0 -8 4 -5 10 3 5 1 19 -6 31 -9 17 -8 20 3 17 7 -3 14
-17 16 -31z m202 14 c5 -11 10 -24 10 -29 0 -16 -39 -21 -51 -6 -9 11 -6 16
12 23 19 8 20 10 6 10 -10 1 -15 6 -12 11 10 16 23 12 35 -9z m52 7 c-7 -7
-12 -20 -12 -30 0 -10 -4 -18 -10 -18 -15 0 -12 47 3 53 22 10 31 7 19 -5z
m-2957 -48 c9 -14 48 -12 64 3 11 10 13 9 9 -2 -7 -25 -35 -36 -64 -26 -15 6
-29 16 -32 23 -4 14 14 16 23 2z m665 -10 c-8 -5 -19 -10 -25 -10 -5 0 -3 5 5
10 8 5 20 10 25 10 6 0 3 -5 -5 -10z m577 -702 c-3 -8 -6 -5 -6 6 -1 11 2 17
5 13 3 -3 4 -12 1 -19z m8140 -35 c-3 -10 -5 -2 -5 17 0 19 2 27 5 18 2 -10 2
-26 0 -35z m50 0 c-3 -10 -5 -2 -5 17 0 19 2 27 5 18 2 -10 2 -26 0 -35z m393
27 c0 -5 -2 -10 -4 -10 -3 0 -8 5 -11 10 -3 6 -1 10 4 10 6 0 11 -4 11 -10z
m-283 -32 c-3 -7 -5 -2 -5 12 0 14 2 19 5 13 2 -7 2 -19 0 -25z m250 0 c-3 -8
-6 -5 -6 6 -1 11 2 17 5 13 3 -3 4 -12 1 -19z m-6006 -1098 c5 0 9 -4 9 -9 0
-4 -17 -8 -37 -7 -41 1 -53 -20 -20 -35 9 -5 25 -13 34 -17 38 -18 39 -40 5
-73 -21 -21 -32 -26 -32 -16 0 8 -11 18 -25 21 -14 4 -25 11 -25 17 0 6 6 9
13 6 43 -16 55 -16 66 -3 17 20 7 33 -29 41 -17 4 -35 16 -41 27 -9 17 -7 25
17 48 24 22 31 24 42 13 7 -7 18 -13 23 -13z m101 -57 c2 -48 7 -67 16 -65 6
1 12 -2 12 -8 0 -5 -18 -10 -41 -10 -25 0 -38 4 -34 10 4 6 11 8 16 5 5 -4 9
18 9 49 0 45 -3 54 -15 50 -20 -8 -19 6 3 22 28 22 31 17 34 -53z m158 57 c0
-10 -57 -129 -66 -139 -2 -2 -7 -2 -10 1 -3 3 9 33 25 67 l31 61 -40 0 c-22 0
-40 5 -40 10 0 6 23 10 50 10 28 0 50 -5 50 -10z m124 -12 c8 -13 8 -23 -1
-38 -8 -12 -9 -21 -3 -25 6 -3 10 -17 10 -30 0 -18 -7 -26 -25 -31 -42 -10
-75 3 -75 31 0 13 5 27 11 31 8 4 8 9 0 17 -15 15 -14 40 1 55 18 18 69 11 82
-10z m164 10 c20 -20 14 -45 -18 -81 -16 -19 -30 -37 -30 -39 0 -3 13 -3 29 0
16 2 32 -1 35 -7 5 -7 -9 -11 -43 -11 -28 0 -51 3 -51 6 0 3 16 24 35 47 43
50 42 73 -3 71 -32 -2 -43 10 -19 19 22 10 53 7 65 -5z m126 -10 c21 -29 20
-92 0 -112 -19 -19 -58 -21 -72 -3 -20 25 -18 99 4 121 22 22 50 20 68 -6z
m3484 -35 c64 -91 94 -184 94 -293 0 -128 -41 -234 -124 -325 -141 -155 -369
-205 -543 -119 -31 15 -40 22 -23 19 45 -8 38 18 -12 47 -25 14 -53 34 -60 44
-8 10 5 4 30 -14 131 -93 298 -104 442 -31 54 27 141 110 172 163 77 132 74
303 -8 436 -20 32 -36 64 -36 72 0 37 42 38 68 1z m-2151 -40 c-3 -10 -5 -2
-5 17 0 19 2 27 5 18 2 -10 2 -26 0 -35z m44 23 c-7 -9 -7 -16 1 -24 8 -8 9
-12 1 -12 -15 0 -25 28 -12 35 5 4 6 11 3 17 -4 7 -2 8 5 4 8 -6 9 -12 2 -20z
m136 -23 c-3 -10 -5 -2 -5 17 0 19 2 27 5 18 2 -10 2 -26 0 -35z m2621 -96 c9
-3 -3 -5 -28 -5 -25 0 -37 2 -27 5 13 4 17 15 17 58 0 47 -2 54 -17 49 -13 -4
-10 1 7 16 l25 22 3 -70 c2 -57 6 -72 20 -75z m139 36 c16 -12 16 -13 0 -13
-9 0 -17 -7 -17 -15 0 -8 -4 -15 -10 -15 -5 0 -10 7 -10 15 0 10 -10 15 -30
15 -16 0 -30 3 -30 8 0 4 17 32 38 62 l37 55 3 -50 c2 -32 9 -55 19 -62z m103
97 c41 -22 33 -132 -11 -143 -10 -3 -29 3 -40 12 -28 22 -30 92 -4 121 21 23
29 24 55 10z m195 0 c4 -6 -8 -10 -29 -10 -31 0 -36 -3 -36 -24 0 -19 4 -23
20 -19 27 7 50 -14 50 -47 0 -32 -33 -52 -67 -39 -32 12 -28 20 6 13 22 -5 32
-2 39 13 16 29 -1 47 -37 40 -31 -6 -31 -6 -31 38 l0 45 39 0 c22 0 43 -4 46
-10z m121 -5 c18 -15 18 -15 -9 -9 -28 6 -57 -9 -57 -30 0 -8 11 -11 28 -8 51
7 71 -55 27 -84 -16 -11 -25 -11 -45 -1 -35 17 -41 96 -11 126 25 25 41 26 67
6z m112 3 c19 -19 14 -54 -13 -86 -14 -17 -25 -32 -25 -35 0 -3 15 -8 33 -10
21 -2 13 -4 -22 -5 l-55 -2 26 28 c66 71 69 110 7 98 -32 -7 -33 -6 -15 9 24
18 48 19 64 3z m207 -2 c17 -12 15 -14 -20 -12 -32 1 -41 -4 -53 -25 -13 -22
-13 -29 -1 -55 11 -22 21 -29 44 -29 23 0 31 5 33 22 2 16 -3 22 -20 25 -20 4
-21 5 -5 12 30 14 49 -1 45 -36 -2 -25 -9 -34 -28 -38 -37 -10 -77 8 -90 39
-28 69 39 138 95 97z m145 -6 c15 -15 18 -25 11 -37 -6 -11 -5 -23 2 -35 20
-30 -3 -53 -57 -56 l-46 -3 0 75 0 76 35 0 c22 0 43 -8 55 -20z m-8136 -20
c-1 -14 -4 -33 -8 -42 -6 -13 -2 -19 17 -23 14 -4 28 -13 31 -21 4 -11 -8 -14
-64 -14 -58 0 -68 3 -64 15 4 8 11 15 18 15 28 1 37 16 25 43 -16 34 -5 59 23
55 17 -2 23 -9 22 -28z m4383 -12 c-3 -7 -5 -2 -5 12 0 14 2 19 5 13 2 -7 2
-19 0 -25z m269 12 c0 -12 -4 -16 -9 -11 -5 5 -6 14 -3 20 10 15 12 14 12 -9z
m27 -31 c-6 -6 -7 3 -4 23 4 28 6 29 9 9 2 -13 0 -27 -5 -32z m32 41 c-4 -6
-1 -19 6 -28 12 -16 12 -16 -5 0 -16 14 -15 38 0 38 3 0 2 -5 -1 -10z m-128
-22 c-3 -8 -6 -5 -6 6 -1 11 2 17 5 13 3 -3 4 -12 1 -19z m-23 -4 c3 -8 2 -12
-4 -9 -6 3 -10 10 -10 16 0 14 7 11 14 -7z m-1814 -34 c0 -5 -4 -10 -10 -10
-5 0 -10 5 -10 10 0 6 5 10 10 10 6 0 10 -4 10 -10z m4685 -50 c3 -5 -1 -10
-9 -10 -9 0 -16 5 -16 10 0 6 4 10 9 10 6 0 13 -4 16 -10z m-1429 -156 c-2
-40 -22 -61 -49 -51 -22 8 -21 84 1 96 28 16 49 -4 48 -45z m62 39 c-29 -5
-40 -32 -12 -29 9 0 21 -7 27 -16 18 -27 -14 -55 -45 -40 -23 11 -23 11 5 11
35 1 38 31 2 31 -20 0 -25 5 -25 25 0 22 4 25 38 24 30 -2 32 -3 10 -6z m82
-15 l0 -23 20 25 c28 36 25 16 -6 -36 -26 -44 -47 -57 -25 -15 9 16 9 19 -2
15 -18 -7 -41 21 -33 41 9 25 46 19 46 -7z m68 -52 c-4 -25 -27 -28 -41 -4 -8
12 -7 21 2 32 18 21 43 2 39 -28z m-6378 -173 c0 -17 -74 -142 -81 -137 -5 3
4 29 21 58 16 30 30 59 30 65 0 6 -16 11 -36 11 -19 0 -33 3 -30 8 5 8 96 3
96 -5z m120 -24 c30 -71 -25 -148 -72 -102 -29 30 -29 100 1 124 28 23 57 14
71 -22z m108 25 c18 -12 22 -25 22 -64 0 -39 -4 -52 -22 -64 -28 -20 -39 -20
-64 -1 -18 15 -17 16 13 10 25 -5 34 -2 47 17 20 28 21 44 1 28 -23 -19 -64
-4 -71 27 -5 20 -2 31 16 45 27 22 30 22 58 2z m123 6 c28 -16 23 -54 -12 -95
l-31 -35 37 0 c21 0 34 -4 30 -10 -8 -13 -82 -13 -90 -1 -3 5 0 13 5 16 6 4
25 25 41 47 34 48 25 73 -23 63 -33 -8 -37 2 -5 15 29 11 26 11 48 0z m130 0
c21 -12 26 -45 8 -56 -8 -4 -8 -9 0 -17 18 -18 13 -55 -8 -67 -26 -13 -34 -13
-57 5 -18 14 -17 14 15 8 22 -4 36 -2 41 7 12 19 1 40 -21 40 -26 0 -24 16 2
23 14 4 19 12 17 24 -3 14 -12 17 -36 15 -37 -2 -41 5 -9 18 29 11 26 11 48 0z
m-641 -65 c0 -51 3 -65 15 -65 8 0 15 -4 15 -10 0 -5 -15 -10 -34 -10 -19 0
-38 5 -41 10 -3 6 1 10 9 10 13 0 16 12 16 55 0 48 -2 54 -17 48 -16 -6 -16
-5 -4 10 28 35 41 20 41 -48z m6075 -25 c10 -11 16 -20 13 -20 -3 0 -13 9 -23
20 -10 11 -16 20 -13 20 3 0 13 -9 23 -20z m60 -118 l30 -23 -33 17 c-18 10
-51 39 -75 63 l-42 45 45 -40 c25 -21 59 -50 75 -62z m-3638 21 c-20 -2 -52
-2 -70 0 -17 2 0 4 38 4 39 0 53 -2 32 -4z m2613 -27 c0 -3 -4 -8 -10 -11 -5
-3 -10 -1 -10 4 0 6 5 11 10 11 6 0 10 -2 10 -4z m-2580 -20 c0 -8 -4 -18 -10
-21 -5 -3 -7 0 -4 9 5 12 -6 16 -58 19 l-63 3 68 2 c52 2 67 -1 67 -12z m-67
-23 c-13 -2 -33 -2 -45 0 -13 2 -3 4 22 4 25 0 35 -2 23 -4z m462 -853 c4 -11
11 -18 16 -15 5 4 9 2 9 -4 0 -18 -18 -21 -25 -3 -7 15 -9 14 -15 -8 -7 -22
-8 -21 -9 13 -1 40 13 50 24 17z m44 -17 c-1 -38 -1 -38 -9 -9 -8 27 -6 46 6
46 2 0 4 -17 3 -37z m155 -2 c1 -17 -1 -28 -5 -24 -8 9 -12 30 -10 52 2 24 13
4 15 -28z m65 -15 c-2 -20 -2 -20 -6 2 -2 12 -9 22 -14 22 -5 0 -14 -10 -19
-22 -8 -20 -9 -18 -9 15 l-1 37 25 -16 c15 -10 24 -25 24 -38z m1548 2 c-2
-13 -4 -5 -4 17 -1 22 1 32 4 23 2 -10 2 -28 0 -40z m52 15 c0 -29 -2 -33 -8
-18 -7 18 -4 55 5 55 2 0 4 -17 3 -37z m3205 12 c-5 -20 -1 -27 17 -34 16 -6
18 -10 8 -10 -24 -1 -42 25 -34 49 9 29 17 25 9 -5z m89 2 c10 -4 16 -16 16
-29 l-2 -23 -4 23 c-2 12 -11 22 -18 22 -7 0 -16 -10 -18 -22 -2 -13 -5 -6 -5
17 -1 22 2 35 6 29 4 -6 15 -13 25 -17z m364 -24 c-3 -10 -5 -2 -5 17 0 19 2
27 5 18 2 -10 2 -26 0 -35z m-3550 7 c0 -20 -3 -26 -9 -18 -10 17 -10 48 0 48
5 0 9 -14 9 -30z m-1869 -2 c-4 -27 -33 -36 -42 -13 -8 22 1 35 25 35 15 0 20
-6 17 -22z m61 -5 c-2 -24 -2 -25 -6 -5 -2 12 -9 22 -14 22 -5 0 -9 -10 -10
-22 0 -22 -1 -22 -8 -3 -11 25 -5 35 20 35 14 0 19 -6 18 -27z m1871 17 c0 -5
-7 -7 -15 -4 -10 4 -15 0 -15 -11 0 -12 5 -15 18 -10 14 5 15 4 5 -6 -17 -17
-38 3 -30 25 7 17 37 22 37 6z m33 -10 c-3 -11 -7 -20 -9 -20 -2 0 -4 9 -4 20
0 11 4 20 9 20 5 0 7 -9 4 -20z m3155 -8 c3 -23 -21 -31 -33 -12 -3 6 1 7 9 4
18 -7 23 21 6 29 -6 3 -5 4 2 3 7 -1 14 -12 16 -24z m29 -9 c-3 -10 -5 -4 -5
12 0 17 2 24 5 18 2 -7 2 -21 0 -30z m33 27 c0 -5 -2 -10 -4 -10 -3 0 -8 5
-11 10 -3 6 -1 10 4 10 6 0 11 -4 11 -10z m33 -10 c-3 -12 -8 -19 -11 -16 -5
6 5 36 12 36 2 0 2 -9 -1 -20z m60 1 c-3 -13 1 -21 14 -24 15 -4 15 -5 1 -6
-20 -1 -32 15 -24 34 8 22 15 18 9 -4z m84 -28 c-3 -10 -5 -2 -5 17 0 19 2 27
5 18 2 -10 2 -26 0 -35z m33 37 c0 -5 -2 -10 -4 -10 -3 0 -8 5 -11 10 -3 6 -1
10 4 10 6 0 11 -4 11 -10z m78 -18 c3 -23 -21 -31 -33 -12 -3 6 1 7 9 4 18 -7
23 21 6 29 -6 3 -5 4 2 3 7 -1 14 -12 16 -24z m29 -9 c-3 -10 -5 -4 -5 12 0
17 2 24 5 18 2 -7 2 -21 0 -30z m33 27 c0 -5 -2 -10 -4 -10 -3 0 -8 5 -11 10
-3 6 -1 10 4 10 6 0 11 -4 11 -10z m-3518 -39 c-4 -11 -7 -10 -13 5 -12 29
-10 36 5 22 7 -7 11 -19 8 -27z m-177 8 c-4 -5 -12 -9 -18 -8 -9 0 -8 2 1 6 6
2 9 10 6 15 -4 7 -2 8 5 4 6 -4 9 -12 6 -17z m3400 -19 c-3 -5 -12 -10 -18
-10 -7 0 -6 4 3 10 19 12 23 12 15 0z m-6969 -476 c1 -120 -1 -205 -6 -189
-10 44 -19 14 -23 -80 -2 -44 -4 46 -5 201 -1 154 1 284 5 288 23 23 28 -13
29 -220z m5089 136 c-3 -5 -22 -10 -41 -10 -31 0 -35 -3 -32 -22 2 -17 12 -25
38 -29 l35 -6 -37 -2 c-36 -1 -38 -2 -38 -36 0 -19 -4 -35 -10 -35 -6 0 -10
32 -10 75 l0 75 51 0 c31 0 48 -4 44 -10z m445 0 c0 -5 -16 -10 -35 -10 -31 0
-35 -3 -35 -25 0 -22 5 -25 38 -27 l37 -1 -37 -4 c-36 -4 -38 -6 -38 -39 0
-19 -4 -34 -10 -34 -6 0 -10 32 -10 75 l0 75 45 0 c25 0 45 -4 45 -10z m240 0
c0 -5 -4 -10 -10 -10 -5 0 -10 5 -10 10 0 6 5 10 10 10 6 0 10 -4 10 -10z
m-1043 -16 c-3 -3 -12 -4 -19 -1 -8 3 -5 6 6 6 11 1 17 -2 13 -5z m613 -9 c0
-8 8 -16 18 -16 16 -1 16 -2 0 -6 -12 -3 -18 -14 -18 -35 0 -18 8 -37 18 -44
14 -11 15 -13 2 -14 -25 0 -40 21 -40 57 0 19 -5 33 -12 34 -10 0 -10 2 0 6 6
2 12 11 12 19 0 8 5 14 10 14 6 0 10 -7 10 -15z m-583 -17 c-3 -8 -6 -5 -6 6
-1 11 2 17 5 13 3 -3 4 -12 1 -19z m417 -4 c9 -8 16 -32 16 -53 0 -36 -2 -38
-34 -39 -41 -2 -65 20 -46 43 7 8 24 15 37 15 15 0 23 5 20 13 -2 6 -16 11
-31 10 -29 -2 -36 13 -8 20 29 8 30 8 46 -9z m102 1 c18 -15 18 -15 -7 -9 -37
8 -45 -12 -12 -28 38 -18 38 -52 -1 -56 -16 -2 -34 2 -40 8 -8 8 -4 11 18 8
36 -4 46 17 13 26 -33 8 -43 37 -21 53 23 16 26 16 50 -2z m436 -11 c-15 -11
-22 -25 -22 -50 0 -19 -4 -34 -10 -34 -5 0 -10 23 -10 51 0 39 3 50 13 46 8
-3 20 -1 28 3 23 15 24 0 1 -16z m158 6 c11 -11 20 -28 20 -37 0 -22 -29 -53
-51 -53 -23 0 -49 27 -49 51 0 20 33 59 50 59 6 0 19 -9 30 -20z m214 14 c25
-10 19 -25 -8 -18 -37 9 -42 -15 -6 -27 24 -9 30 -17 28 -33 -3 -24 -53 -35
-72 -15 -8 9 -5 10 14 6 14 -4 31 -2 39 2 11 7 6 13 -18 25 -33 17 -39 34 -19
54 14 14 20 14 42 6z m-1464 -14 c0 -5 -2 -10 -4 -10 -3 0 -8 5 -11 10 -3 6
-1 10 4 10 6 0 11 -4 11 -10z m952 -27 c2 -31 7 -39 26 -41 20 -3 22 1 22 37
0 23 5 41 10 41 6 0 10 -21 10 -47 0 -48 0 -48 -35 -51 -30 -2 -37 2 -45 24
-13 32 -13 74 -1 74 6 0 11 -17 13 -37z m198 -13 c0 -27 -4 -50 -10 -50 -5 0
-10 23 -10 50 0 28 5 50 10 50 6 0 10 -22 10 -50z m160 11 c0 -24 5 -41 14
-44 21 -8 36 13 36 50 0 18 5 33 10 33 6 0 10 -22 10 -48 l0 -49 -37 -1 c-20
-1 -41 4 -45 11 -11 18 -10 87 2 87 6 0 10 -18 10 -39z m-1100 -61 c0 -5 -15
-9 -32 -9 l-33 1 30 8 c17 4 31 8 33 9 1 0 2 -3 2 -9z m-182 -7 c-10 -2 -26
-2 -35 0 -10 3 -2 5 17 5 19 0 27 -2 18 -5z m-5801 -328 c1 -235 -1 -303 -9
-280 l-11 30 -13 -30 c-11 -25 -13 18 -14 276 0 168 3 309 7 313 4 4 14 5 23
4 13 -3 15 -42 17 -313z m3679 -55 c0 -201 -2 -327 -5 -280 -6 82 -16 84 -24
5 -1 -16 -5 116 -8 295 -4 179 -4 331 -1 338 2 7 12 12 21 10 14 -3 16 -40 17
-368z m-3398 318 c14 -14 16 -423 2 -518 -4 -30 -8 -47 -9 -37 0 9 -5 17 -11
17 -5 0 -11 -26 -13 -57 -2 -32 -4 89 -5 268 -1 179 1 329 5 332 9 10 17 9 31
-5z m580 0 c7 -9 8 -115 3 -323 -4 -170 -8 -289 -9 -262 -3 76 -21 54 -25 -30
-1 -43 -4 78 -5 268 -1 190 1 349 5 352 10 10 19 8 31 -5z m1660 0 c14 -14 16
-423 2 -518 -4 -30 -8 -47 -9 -37 0 9 -5 17 -11 17 -5 0 -11 -26 -13 -57 -2
-32 -4 89 -5 268 -1 179 1 329 5 332 9 10 17 9 31 -5z m1448 -339 c0 -189 -1
-311 -3 -271 -4 69 -21 101 -25 45 -3 -50 -16 249 -17 403 -1 148 5 180 34
171 7 -2 10 -119 11 -348z m583 47 c-1 -160 -4 -281 -6 -268 -5 26 -30 30 -36
5 -3 -10 -5 111 -6 269 -1 221 2 287 12 291 36 12 37 2 36 -297z m-3068 150
c27 25 24 12 -4 -14 l-23 -22 -25 27 c-21 25 -22 26 -1 9 l22 -19 2 44 1 44 4
-43 c4 -43 5 -44 24 -26z m117 27 c-25 -6 -22 -16 7 -30 23 -10 25 -9 25 14 0
19 4 24 22 21 17 -2 22 -10 23 -33 0 -27 -3 -30 -30 -30 -16 0 -35 -3 -42 -8
-12 -7 -46 19 -40 31 2 4 7 15 10 25 4 9 14 16 24 16 17 -1 17 -2 1 -6z m140
-24 c4 -31 -17 -52 -38 -39 -12 8 -10 10 8 10 12 0 22 4 22 10 0 5 -6 7 -14 4
-17 -7 -30 12 -22 32 9 24 41 12 44 -17z m70 24 c-22 -5 -24 -23 -4 -23 22 0
30 -20 15 -36 -10 -9 -19 -10 -29 -4 -12 8 -11 10 8 10 12 0 22 5 22 10 0 6
-9 10 -20 10 -13 0 -20 7 -20 20 0 14 6 20 23 19 16 -1 18 -2 5 -6z m73 -45
c-9 -20 -10 -18 -10 17 0 31 2 36 9 23 6 -10 7 -25 1 -40z m58 15 c-1 -38 -1
-38 -9 -9 -8 27 -6 46 6 46 2 0 4 -17 3 -37z m73 7 c5 -36 2 -40 -29 -40 -20
0 -23 5 -23 35 0 30 3 35 24 35 19 0 25 -6 28 -30z m-97 -19 c-3 -6 -11 -8
-17 -5 -6 4 -5 9 3 15 16 10 23 4 14 -10z m-427 -38 c-15 -2 -42 -2 -60 0 -18
2 -6 4 27 4 33 0 48 -2 33 -4z m821 -112 l-1 -76 -18 80 c-19 83 -18 104 6 84
10 -8 14 -33 13 -88z m-2603 -186 c1 -105 -1 -175 -3 -157 -4 31 -22 45 -24
20 -1 -7 -5 1 -9 17 -10 38 -12 299 -3 309 4 4 14 5 23 4 13 -3 15 -30 16
-193z m3680 -6 c0 -107 -1 -177 -3 -156 -2 20 -8 37 -13 37 -5 0 -11 -17 -13
-37 -2 -21 -4 48 -5 153 -1 105 1 194 5 198 23 23 28 -12 29 -195z m-1925 124
l-5 -48 -6 45 c-6 47 -3 63 8 56 4 -2 5 -26 3 -53z m149 47 c0 -16 -23 -60
-32 -60 -5 0 -2 13 7 29 14 27 13 30 -3 34 -13 4 -11 5 6 6 12 0 22 -3 22 -9z
m60 -9 c0 -11 -5 -23 -11 -27 -8 -4 -7 -9 2 -15 10 -6 8 -9 -9 -9 -22 0 -22 1
-8 22 20 29 20 35 -1 41 -14 4 -12 5 5 6 16 1 22 -5 22 -18z m90 -15 c0 -30
-2 -33 -25 -28 -30 5 -30 6 -7 37 23 33 32 31 32 -9z m77 -6 c2 -3 13 6 23 20
l20 25 -1 -40 c-1 -33 -2 -36 -8 -15 -7 24 -7 24 -18 5 l-12 -20 -15 20 c-8
11 -15 27 -15 35 0 10 3 9 11 -5 6 -11 13 -22 15 -25z m108 5 c0 -25 -4 -30
-27 -33 -26 -3 -28 -1 -28 33 0 34 2 36 28 33 23 -3 27 -8 27 -33z m-125 -25
c0 -5 -5 -10 -11 -10 -5 0 -7 5 -4 10 3 6 8 10 11 10 2 0 4 -4 4 -10z m6110
-74 c0 -26 5 -46 13 -49 6 -3 -4 -5 -23 -5 -19 0 -29 2 -22 5 15 6 16 73 1 73
-5 0 -7 5 -4 10 3 6 13 10 21 10 10 0 14 -12 14 -44z m101 21 c14 -32 -4 -77
-31 -77 -27 0 -45 45 -31 77 6 13 19 23 31 23 12 0 25 -10 31 -23z m85 -1 c8
-33 2 -57 -18 -69 -33 -21 -60 29 -42 77 10 26 53 20 60 -8z m91 17 c-27 -4
-34 -27 -9 -29 7 -1 17 -2 23 -3 6 0 9 -13 7 -28 -3 -30 -32 -43 -51 -24 -9 9
-5 11 13 9 17 -2 25 2 25 12 0 9 -9 15 -22 14 -19 0 -23 5 -23 28 0 25 3 28
33 27 31 -2 31 -2 4 -6z m106 -14 c13 -20 1 -68 -18 -76 -24 -8 -45 16 -45 52
0 17 3 35 7 39 12 11 45 2 56 -15z m131 12 c3 -4 -5 -6 -17 -4 -33 7 -53 -20
-39 -52 7 -14 18 -25 26 -25 19 0 33 23 18 28 -17 5 -15 22 3 22 20 0 20 -49
-1 -57 -8 -3 -26 -1 -40 5 -27 13 -34 58 -12 80 14 14 54 16 62 3z m102 -34
c1 -42 -14 -60 -48 -55 -20 3 -23 10 -26 51 l-3 48 38 -3 c36 -3 37 -5 39 -41z
m-9130 -147 c1 -74 -1 -118 -3 -97 -4 39 -19 50 -26 20 -2 -10 -7 30 -11 89
-9 111 -5 131 22 126 15 -3 17 -21 18 -138z m1160 129 c3 -6 3 -59 -2 -117 -4
-59 -9 -99 -11 -89 -7 30 -22 19 -26 -20 -2 -21 -4 21 -5 93 -1 72 1 134 5
137 10 11 31 8 39 -4z m2526 -1 c3 -7 2 -62 -2 -123 -4 -60 -8 -100 -8 -87 -3
36 -20 25 -25 -15 -2 -21 -4 24 -5 100 -2 128 -1 137 17 137 10 0 21 -6 23
-12z m1154 -113 c1 -66 0 -110 -3 -97 -3 14 -10 22 -18 18 -18 -6 -25 25 -25
115 0 79 4 92 30 87 12 -3 15 -24 16 -123z m582 50 c4 -90 -4 -136 -23 -129
-8 4 -15 -3 -18 -18 -2 -13 -5 29 -6 93 0 64 2 119 6 123 4 4 14 5 23 4 11 -3
16 -20 18 -73z m-6002 -61 c1 -65 0 -109 -3 -96 -2 12 -8 22 -13 22 -5 0 -11
-10 -13 -22 -2 -13 -5 29 -6 93 0 64 2 119 6 123 21 21 28 -9 29 -120z m9314
96 c0 -5 -4 -10 -10 -10 -5 0 -10 5 -10 10 0 6 5 10 10 10 6 0 10 -4 10 -10z
m-9020 -200 c0 -23 -4 -30 -20 -30 -16 0 -20 7 -20 30 0 23 4 30 20 30 16 0
20 -7 20 -30z m3683 18 c7 -23 -5 -48 -24 -48 -13 0 -19 7 -19 23 0 13 3 27 7
30 11 11 31 8 36 -5z m2310 0 c7 -23 -5 -48 -24 -48 -13 0 -19 7 -19 23 0 13
3 27 7 30 11 11 31 8 36 -5z m-3385 -64 c2 -11 -4 -26 -12 -33 -31 -26 -71 14
-45 45 17 21 53 14 57 -12z m4090 -53 c9 7 7 2 -5 -11 l-23 -24 -20 22 c-11
12 -15 17 -8 12 21 -18 28 -11 30 33 l1 42 4 -43 c4 -39 6 -42 21 -31z m2012
11 c0 -21 5 -43 12 -50 9 -9 5 -12 -17 -11 -17 0 -24 3 -17 6 15 6 16 73 1 73
-5 0 -7 5 -4 10 13 21 25 8 25 -28z m105 -12 c0 -39 -3 -45 -22 -48 -16 -2
-26 4 -35 22 -16 37 3 79 35 74 19 -3 22 -9 22 -48z m125 45 c0 -12 -40 -84
-50 -90 -16 -10 -12 7 10 43 25 41 25 40 -7 45 -23 3 -21 4 10 6 20 0 37 -1
37 -4z m80 -3 c0 -5 -10 -8 -21 -8 -12 1 -24 -5 -26 -11 -3 -8 5 -13 20 -13
30 0 41 -21 23 -45 -29 -40 -74 11 -55 63 6 15 17 22 34 22 14 0 25 -4 25 -8z
m96 -39 c10 -16 13 -15 28 15 9 17 19 32 21 32 3 0 4 -24 4 -52 -2 -48 -2 -50
-8 -18 -6 32 -8 33 -15 13 -4 -13 -11 -23 -16 -23 -5 0 -15 10 -22 23 -12 21
-13 21 -19 -13 -5 -30 -7 -28 -7 20 -1 57 2 57 34 3z m149 -3 c0 -45 0 -45
-35 -45 -32 0 -35 2 -38 33 -5 52 3 64 40 60 32 -3 33 -5 33 -48z m84 2 c12
-23 -4 -52 -29 -52 -10 0 -21 -6 -23 -12 -3 -7 -6 8 -6 35 -1 44 1 47 24 47
13 0 29 -8 34 -18z m47 11 c-19 -5 -18 -6 4 -23 13 -9 20 -22 16 -29 -9 -13
-46 -15 -46 -1 0 5 7 7 15 4 8 -4 15 -2 15 4 0 5 -7 12 -15 16 -24 9 -18 36 8
35 19 -1 19 -2 3 -6z m-9110 -69 c-3 -8 -12 -14 -21 -14 -21 0 -19 36 3 58 16
17 17 16 20 -6 2 -13 1 -30 -2 -38z m3684 20 c0 -28 -3 -35 -17 -32 -11 2 -19
14 -21 31 -3 21 0 26 12 21 9 -3 16 -1 16 5 0 6 2 11 5 11 3 0 5 -16 5 -36z
m-3979 -127 c-19 -19 -31 5 -31 61 0 41 3 53 10 42 8 -12 11 -11 18 10 5 18 8
8 10 -39 2 -35 -1 -68 -7 -74z m4260 0 c-19 -19 -31 6 -30 66 0 44 3 56 9 42
8 -19 9 -19 17 5 6 19 9 10 11 -39 2 -35 -1 -68 -7 -74z m579 -1 c-7 -7 -15
-6 -25 5 -20 19 -10 99 11 99 8 0 15 8 16 18 1 9 3 -12 5 -47 2 -37 0 -68 -7
-75z m-4250 64 c0 -46 -4 -62 -16 -67 -20 -7 -34 13 -34 49 0 36 10 58 26 58
8 0 14 5 14 10 0 6 2 10 5 10 3 0 5 -27 5 -60z m1136 45 c7 15 10 8 15 -35 4
-38 2 -59 -6 -69 -23 -24 -35 -2 -34 62 0 43 3 56 9 42 l8 -20 8 20z m1949 -5
c20 17 32 -77 12 -98 -25 -25 -37 -4 -36 61 1 34 3 54 6 44 4 -14 8 -15 18 -7z
m2310 0 c20 17 32 -77 12 -98 -25 -25 -37 -4 -36 61 1 34 3 54 6 44 4 -14 8
-15 18 -7z m-4835 -5 c10 0 16 -12 18 -40 3 -47 -9 -70 -32 -62 -12 5 -16 20
-16 64 0 32 4 54 8 48 4 -5 14 -10 22 -10z m4271 -98 c-22 -22 -41 2 -41 53 0
28 4 49 8 46 4 -2 14 -1 22 4 12 8 16 0 18 -42 2 -28 -1 -55 -7 -61z m1297
106 c-15 -2 -42 -2 -60 0 -18 2 -6 4 27 4 33 0 48 -2 33 -4z m-3537 -176 c-5
-5 -17 -7 -25 -4 -12 5 -16 22 -16 76 0 56 3 69 14 65 8 -3 18 1 22 8 6 8 10
-16 12 -61 2 -41 -1 -78 -7 -84z m-1751 103 c5 0 10 6 13 13 2 6 8 -32 12 -86
6 -82 5 -101 -8 -114 -29 -30 -37 -6 -36 115 1 64 4 107 6 95 2 -13 8 -23 13
-23z m3698 -191 c-25 -16 -38 12 -38 80 0 80 8 111 26 111 8 0 15 10 16 23 1
12 4 -29 5 -92 3 -84 0 -116 -9 -122z m-2818 -3 c-14 -14 -43 21 -35 42 3 8 5
48 6 90 0 42 3 71 6 65 8 -21 23 -15 25 10 1 12 4 -27 5 -87 3 -71 0 -113 -7
-120z m3385 194 c17 0 25 -32 25 -110 0 -67 -11 -93 -36 -83 -11 4 -14 30 -13
117 1 61 3 103 6 94 2 -10 10 -18 18 -18z m-5975 -130 c0 -143 -1 -150 -20
-150 -19 0 -20 6 -19 148 1 81 4 135 6 120 6 -37 23 -36 23 2 0 17 2 30 5 30
3 0 5 -67 5 -150z m2890 -60 c0 -146 -2 -172 -16 -177 -32 -12 -37 12 -29 164
4 81 10 142 12 136 9 -24 23 -13 23 17 0 17 2 30 5 30 3 0 5 -77 5 -170z m775
114 c18 7 27 -69 23 -194 -3 -87 -5 -95 -23 -95 -19 0 -20 7 -21 170 -1 94 1
157 3 142 3 -19 9 -27 18 -23z m1165 -378 c-7 -7 -14 -6 -24 4 -11 12 -12 50
-6 200 3 102 7 173 8 158 4 -51 22 -41 24 14 2 29 4 -41 5 -156 2 -134 0 -213
-7 -220z m-3679 1 c-5 -5 -17 -7 -25 -4 -14 5 -16 31 -16 176 0 164 1 169 20
164 14 -4 21 0 22 13 1 11 4 -62 5 -160 2 -105 0 -183 -6 -189z m2017 -88
c-30 -19 -38 12 -38 150 0 173 8 241 26 234 10 -4 15 5 16 33 2 22 4 -62 5
-185 3 -170 0 -226 -9 -232z m-878 301 c5 0 11 28 13 63 2 34 4 -74 5 -240 2
-297 2 -303 -18 -303 -20 0 -20 6 -18 303 1 166 3 274 5 240 2 -35 8 -63 13
-63z m6801 81 c-33 -9 -38 -29 -9 -33 17 -2 23 -10 23 -28 0 -20 -6 -26 -27
-28 -16 -2 -28 1 -28 6 0 5 10 8 23 8 13 -1 22 5 22 14 0 10 -8 14 -22 13 -19
-2 -23 2 -23 27 0 27 3 30 33 29 29 -1 29 -2 8 -8z m134 -41 c0 -43 -1 -45
-30 -45 -28 0 -30 3 -31 40 -2 51 2 57 34 53 25 -3 27 -7 27 -48z m85 25 c13
-34 -3 -75 -30 -75 -29 0 -47 42 -32 75 7 15 20 25 32 25 13 0 24 -10 30 -25z
m90 -15 c12 -28 14 -29 26 -13 16 22 18 10 3 -19 -11 -20 -11 -20 -29 7 l-18
28 -5 -34 c-3 -25 -4 -20 -5 19 -2 57 8 61 28 12z m59 -12 l-1 -53 -8 40 c-7
36 -4 65 6 65 2 0 3 -24 3 -52z m88 40 c5 -7 9 -29 9 -48 -1 -33 -3 -35 -38
-38 l-38 -3 0 44 c0 24 3 47 7 50 11 12 50 8 60 -5z m-2576 -65 l-5 -48 -6 45
c-6 47 -3 63 8 56 4 -2 5 -26 3 -53z m2669 26 c13 -24 -2 -49 -30 -49 -10 0
-21 -8 -23 -17 -3 -10 -5 5 -6 32 -1 47 1 51 24 53 16 1 28 -5 35 -19z m48 14
c-24 -6 -23 -19 3 -26 28 -7 19 -31 -12 -34 l-24 -2 25 9 25 8 -22 7 c-34 11
-29 46 6 44 13 -1 13 -2 -1 -6z m-175 -447 c55 -20 110 -61 131 -98 17 -30 17
-32 1 -16 -20 18 -14 22 -111 -70 -19 -18 -39 -30 -44 -27 -6 3 -10 2 -10 -2
0 -5 9 -14 20 -21 13 -8 20 -9 20 -1 0 21 45 4 48 -19 4 -26 -21 -40 -42 -23
-10 8 -16 9 -21 1 -3 -5 -17 -10 -31 -10 -18 0 -24 6 -25 23 l-2 22 -4 -22
c-4 -19 -11 -23 -46 -24 -25 0 -35 -3 -25 -7 14 -6 10 -13 -25 -46 -23 -22
-44 -39 -47 -39 -3 1 -12 -6 -21 -16 -13 -13 -14 -22 -6 -37 22 -41 -34 20
-62 66 -35 60 -37 173 -4 235 31 59 85 105 145 126 63 22 109 23 161 5z
m-2573 -256 c0 -5 -7 -7 -15 -4 -8 4 -12 10 -9 15 6 11 24 2 24 -11z"/>
<path d="M10654 7378 c-11 -18 11 -27 35 -14 l24 13 -27 5 c-15 3 -29 1 -32
-4z"/>
<path d="M10725 7370 c3 -5 10 -10 16 -10 5 0 9 5 9 10 0 6 -7 10 -16 10 -8 0
-12 -4 -9 -10z"/>
<path d="M1440 7350 c-15 -28 4 -60 35 -60 14 0 29 8 35 20 15 28 -4 60 -35
60 -14 0 -29 -8 -35 -20z"/>
<path d="M1778 7360 l-23 -19 48 -1 c49 0 54 10 17 30 -14 7 -24 5 -42 -10z"/>
<path d="M3628 7340 c-4 -27 -2 -31 16 -28 26 4 30 51 5 56 -12 2 -18 -6 -21
-28z"/>
<path d="M3910 7325 c0 -8 7 -15 15 -15 8 0 15 7 15 15 0 8 -7 15 -15 15 -8 0
-15 -7 -15 -15z"/>
<path d="M3980 7325 c0 -8 7 -15 15 -15 8 0 15 7 15 15 0 8 -7 15 -15 15 -8 0
-15 -7 -15 -15z"/>
<path d="M4160 7324 c0 -9 5 -14 12 -12 18 6 21 28 4 28 -9 0 -16 -7 -16 -16z"/>
<path d="M5273 5424 c-5 -14 11 -34 27 -34 3 0 11 4 19 9 19 12 6 41 -19 41
-11 0 -23 -7 -27 -16z"/>
<path d="M5283 5373 c-18 -7 -16 -40 2 -47 22 -8 45 4 45 24 0 14 -23 34 -33
29 -1 0 -8 -3 -14 -6z"/>
<path d="M5575 5429 c-13 -20 -7 -81 8 -97 32 -32 62 36 41 92 -7 18 -39 21
-49 5z"/>
<path d="M9846 5335 c-20 -31 -20 -35 3 -35 13 0 20 9 23 30 5 36 -4 38 -26 5z"/>
<path d="M9960 5371 c-14 -28 -13 -64 4 -87 22 -28 50 -7 54 40 5 58 -35 90
-58 47z"/>
<path d="M10264 5315 c-4 -9 0 -23 9 -32 21 -21 49 -9 45 19 -4 28 -45 38 -54
13z"/>
<path d="M10720 5365 c0 -24 3 -26 33 -23 24 2 32 8 32 23 0 15 -8 21 -32 23
-30 3 -33 1 -33 -23z"/>
<path d="M10720 5295 c0 -24 3 -26 33 -23 24 2 32 8 32 23 0 15 -8 21 -32 23
-30 3 -33 1 -33 -23z"/>
<path d="M8605 5141 c-3 -5 -1 -12 5 -16 12 -7 30 2 30 16 0 12 -27 12 -35 0z"/>
<path d="M8607 5104 c-13 -13 -7 -24 14 -24 11 0 19 5 17 12 -5 14 -22 21 -31
12z"/>
<path d="M8770 5135 c0 -8 5 -15 10 -15 6 0 10 7 10 15 0 8 -4 15 -10 15 -5 0
-10 -7 -10 -15z"/>
<path d="M8840 5096 c0 -9 5 -16 10 -16 6 0 10 4 10 9 0 6 -4 13 -10 16 -5 3
-10 -1 -10 -9z"/>
<path d="M2540 4891 c-14 -28 -13 -64 4 -87 22 -28 50 -7 54 40 5 58 -35 90
-58 47z"/>
<path d="M2664 4896 c-10 -26 4 -48 28 -44 17 2 23 10 23 28 0 18 -6 26 -23
28 -13 2 -25 -3 -28 -12z"/>
<path d="M5330 3785 c0 -8 5 -15 10 -15 6 0 10 7 10 15 0 8 -4 15 -10 15 -5 0
-10 -7 -10 -15z"/>
<path d="M8760 3310 c-13 -9 -13 -11 0 -19 9 -6 19 -6 27 1 28 23 5 39 -27 18z"/>
<path d="M9447 3353 c-11 -10 -8 -48 5 -61 15 -15 48 3 48 26 0 31 -35 54 -53
35z"/>
<path d="M4120 3070 c0 -5 5 -10 10 -10 6 0 10 5 10 10 0 6 -4 10 -10 10 -5 0
-10 -4 -10 -10z"/>
<path d="M4060 3040 c0 -5 5 -10 10 -10 6 0 10 5 10 10 0 6 -4 10 -10 10 -5 0
-10 -4 -10 -10z"/>
<path d="M4120 3040 c0 -5 7 -10 16 -10 8 0 12 5 9 10 -3 6 -10 10 -16 10 -5
0 -9 -4 -9 -10z"/>
<path d="M4182 3071 c2 -7 7 -12 11 -12 12 1 9 15 -3 20 -7 2 -11 -2 -8 -8z"/>
<path d="M4450 3070 c0 -5 7 -10 15 -10 8 0 15 5 15 10 0 6 -7 10 -15 10 -8 0
-15 -4 -15 -10z"/>
<path d="M4450 3040 c0 -5 7 -10 15 -10 8 0 15 5 15 10 0 6 -7 10 -15 10 -8 0
-15 -4 -15 -10z"/>
<path d="M4210 2839 c0 -5 5 -7 10 -4 6 3 10 8 10 11 0 2 -4 4 -10 4 -5 0 -10
-5 -10 -11z"/>
<path d="M4380 2860 c0 -5 7 -10 15 -10 8 0 15 5 15 10 0 6 -7 10 -15 10 -8 0
-15 -4 -15 -10z"/>
<path d="M4380 2830 c0 -5 9 -10 21 -10 11 0 17 5 14 10 -3 6 -13 10 -21 10
-8 0 -14 -4 -14 -10z"/>
<path d="M10464 2767 c-9 -25 0 -62 16 -62 10 0 15 10 15 34 0 36 -21 54 -31
28z"/>
<path d="M10544 2754 c-4 -17 -1 -31 9 -41 13 -14 16 -13 27 6 13 26 5 61 -15
61 -8 0 -18 -12 -21 -26z"/>
<path d="M10747 2773 c-12 -11 -8 -50 6 -62 19 -15 27 -4 27 36 0 31 -16 44
-33 26z"/>
<path d="M10970 2765 c0 -8 9 -15 20 -15 11 0 20 7 20 15 0 8 -9 15 -20 15
-11 0 -20 -7 -20 -15z"/>
<path d="M10970 2720 c0 -15 5 -20 18 -18 9 2 17 10 17 18 0 8 -8 16 -17 18
-13 2 -18 -3 -18 -18z"/>
<path d="M10384 2427 c-9 -25 0 -62 16 -62 10 0 15 10 15 34 0 36 -21 54 -31
28z"/>
<path d="M10584 2389 c-8 -14 11 -33 25 -25 16 10 13 36 -3 36 -8 0 -18 -5
-22 -11z"/>
<path d="M10820 2425 c0 -8 9 -15 20 -15 11 0 20 7 20 15 0 8 -9 15 -20 15
-11 0 -20 -7 -20 -15z"/>
<path d="M10820 2375 c0 -11 7 -15 23 -13 12 2 22 8 22 13 0 6 -10 11 -22 13
-16 2 -23 -2 -23 -13z"/>
<path d="M10917 2397 c-3 -8 -1 -20 4 -28 11 -19 34 3 26 25 -8 20 -23 21 -30
3z"/>
<path d="M10506 2103 c-11 -11 -6 -23 9 -23 8 0 15 4 15 9 0 13 -16 22 -24 14z"/>
<path d="M10495 2050 c-8 -12 20 -24 35 -15 6 3 8 11 5 16 -8 12 -32 12 -40
-1z"/>
<path d="M10584 2097 c-9 -25 0 -62 16 -62 10 0 15 10 15 34 0 36 -21 54 -31
28z"/>
<path d="M10820 2096 c0 -8 4 -17 8 -20 13 -8 35 11 28 23 -10 16 -36 14 -36
-3z"/>
<path d="M10820 2045 c0 -11 7 -15 23 -13 12 2 22 8 22 13 0 6 -10 11 -22 13
-16 2 -23 -2 -23 -13z"/>
<path d="M10917 2067 c-3 -8 -1 -20 4 -28 11 -19 34 3 26 25 -8 20 -23 21 -30
3z"/>
<path d="M10750 1420 c-13 -8 -12 -10 3 -10 9 0 17 5 17 10 0 12 -1 12 -20 0z"/>
<path d="M10704 1405 c-3 -8 -4 -20 -1 -27 3 -7 6 -3 6 9 1 12 7 24 14 26 9 4
9 6 -1 6 -7 1 -15 -6 -18 -14z"/>
<path d="M10634 1381 c0 -21 7 -36 16 -38 10 -3 11 -2 3 4 -6 4 -13 22 -16 38
-4 27 -5 27 -3 -4z"/>
</g>
</svg>
