<svg id="Full_Stack_icon" data-name="Full Stack icon" xmlns="http://www.w3.org/2000/svg" width="104" height="91.935" viewBox="0 0 104 91.935">
  <path id="Path_5" data-name="Path 5" d="M0,0H104V91.935H0Z" fill="none"/>
  <path id="Path_6" data-name="Path 6" d="M11,17.47C11,13.333,14.77,10,19.45,10H78.08c4.68,0,8.45,3.333,8.45,7.47V31.834H11Z" transform="translate(3.3 1.492)" fill="#eb0d72" fill-rule="evenodd"/>
  <path id="Path_7" data-name="Path 7" d="M11,51H47.14V72.834H19.19c-4.55,0-8.19-3.333-8.19-7.47V51Z" transform="translate(3.3 7.608)" fill="#00a9e5" fill-rule="evenodd"/>
  <path id="Path_8" data-name="Path 8" d="M41.2,51H77.34V65.365c0,4.137-3.64,7.47-8.19,7.47H41.2Z" transform="translate(12.36 7.608)" fill="#fed10a" fill-rule="evenodd"/>
  <path id="Path_9" data-name="Path 9" d="M11,31H86.4V51.685H11Z" transform="translate(3.3 4.625)" fill="#3ebeb0" fill-rule="evenodd"/>
</svg>
