<svg xmlns="http://www.w3.org/2000/svg" xmlns:xlink="http://www.w3.org/1999/xlink" width="89.954" height="78.151" viewBox="0 0 89.954 78.151">
  <defs>
    <clipPath id="clip-path">
      <path id="Path_4" data-name="Path 4" d="M37.282.531A14.426,14.426,0,0,0,31.4,1.777,15.033,15.033,0,0,0,26.6,5.17,15.724,15.724,0,0,0,24.7,7.6a14.488,14.488,0,0,0-9.068.889,15.042,15.042,0,0,0-4.8,3.393,15.833,15.833,0,0,0-3.237,5.033A16.4,16.4,0,0,0,6.4,23.078a16.587,16.587,0,0,0,.34,3.34,15.342,15.342,0,0,0-2.317,1.99,15.825,15.825,0,0,0-3.237,5.033,16.583,16.583,0,0,0,0,12.331A15.833,15.833,0,0,0,4.425,50.8a15.253,15.253,0,0,0,2.318,1.991c-.01.051-.023.1-.033.152a16.707,16.707,0,0,0,0,6.376A16.281,16.281,0,0,0,7.592,62.3,16.082,16.082,0,0,0,8.985,64.99a15.778,15.778,0,0,0,1.843,2.343,15.412,15.412,0,0,0,2.234,1.931,14.949,14.949,0,0,0,2.567,1.46,14.518,14.518,0,0,0,8.925.925c.048-.01.1-.024.145-.035a15.752,15.752,0,0,0,1.9,2.429,15.037,15.037,0,0,0,4.8,3.392,14.425,14.425,0,0,0,5.883,1.246H58.608c.082,0,.164-.006.244-.013s.172.013.259.013a3,3,0,0,0,2.177-.945L67.141,71.6h5.291a5.044,5.044,0,0,0,4.1,2.151A5.383,5.383,0,0,0,76.53,63a5.043,5.043,0,0,0-4.1,2.151H65.866c-.036,0-.07,0-.106.006-.064,0-.129,0-.194.01s-.114.017-.171.026-.085.012-.127.021c-.058.012-.116.029-.174.044-.04.011-.079.019-.118.031-.055.018-.109.039-.162.059s-.083.029-.123.047-.1.046-.144.07-.087.042-.13.066-.088.053-.132.081-.086.052-.127.081-.093.07-.139.106-.07.052-.1.081c-.078.068-.153.138-.225.213h0l-5.853,6.135H37.282a8.538,8.538,0,0,1-3.485-.737,8.919,8.919,0,0,1-2.847-2.012c-.177-.186-.341-.381-.5-.579a15.5,15.5,0,0,0,1.748-1.57,15.729,15.729,0,0,0,1.843-2.342,16.017,16.017,0,0,0,1.393-2.69c.053-.132.1-.266.15-.4H42.6a5.044,5.044,0,0,0,4.1,2.151,5.383,5.383,0,0,0,0-10.755,5.044,5.044,0,0,0-4.1,2.151H33.3a2.921,2.921,0,0,0-.306.017,2.976,2.976,0,0,0-1.374.51l-.016.01c-.066.046-.128.095-.19.145l-.053.042c-.049.041-.095.087-.142.131-.027.026-.056.052-.083.079s-.068.076-.1.114-.07.077-.1.117-.049.068-.073.1-.073.1-.106.148c-.023.035-.042.072-.064.108-.031.052-.063.1-.091.158s-.051.108-.076.164c-.018.039-.037.077-.054.117a3.255,3.255,0,0,0-.184.623,9.561,9.561,0,0,1-1.344,3.344,9.364,9.364,0,0,1-1.095,1.391,9.068,9.068,0,0,1-1.328,1.148,8.75,8.75,0,0,1-1.52.865,8.581,8.581,0,0,1-1.676.545,8.676,8.676,0,0,1-3.615,0,8.567,8.567,0,0,1-1.677-.545,8.878,8.878,0,0,1-1.52-.865,9.081,9.081,0,0,1-1.326-1.147,9.364,9.364,0,0,1-1.1-1.392,9.53,9.53,0,0,1-.825-1.593,9.663,9.663,0,0,1-.52-1.756,9.921,9.921,0,0,1-.182-1.9c0-.3.015-.61.042-.912a14.465,14.465,0,0,0,8.39-1.025,15.025,15.025,0,0,0,4.8-3.393,15.844,15.844,0,0,0,3.237-5.033h0a4.826,4.826,0,0,1,.985-1.529,4.559,4.559,0,0,1,1.46-1.033,4.369,4.369,0,0,1,1.785-.376H53.815l5.853,6.135h0c.072.075.147.145.225.213.035.03.071.056.106.084s.088.071.135.1.087.057.132.084.083.055.126.079.091.047.137.07.09.046.136.067.09.034.135.051.1.038.148.055.092.025.138.037.1.029.155.04.107.017.16.026.091.016.137.021a2.9,2.9,0,0,0,.3.016H80.726a5.044,5.044,0,0,0,4.1,2.151,5.383,5.383,0,0,0,0-10.755,5.045,5.045,0,0,0-4.1,2.151H63.119l-3.675-3.854,3.677-3.853h7.346a5.044,5.044,0,0,0,4.1,2.151,5.383,5.383,0,0,0,0-10.755,5.045,5.045,0,0,0-4.1,2.151h-8.62c-.021,0-.041,0-.061,0-.08,0-.16,0-.24.013-.054.006-.1.016-.157.024s-.095.013-.142.023-.111.027-.165.042-.085.021-.127.034-.1.038-.157.057-.085.031-.128.049-.094.045-.141.068-.089.042-.132.067-.086.053-.13.08-.087.053-.129.082-.092.07-.137.106-.071.053-.1.082c-.078.067-.153.138-.225.213h0L53.816,36.38H33.261a10.249,10.249,0,0,0-4.184.887,10.69,10.69,0,0,0-3.414,2.412,11.262,11.262,0,0,0-2.3,3.58h0a9.4,9.4,0,0,1-1.92,2.983,8.927,8.927,0,0,1-2.847,2.013,8.621,8.621,0,0,1-6.968,0,8.926,8.926,0,0,1-2.847-2.013,9.378,9.378,0,0,1-1.92-2.984,9.843,9.843,0,0,1,0-7.3,9.385,9.385,0,0,1,1.92-2.983c.177-.185.362-.357.551-.525a15.681,15.681,0,0,0,1.5,1.831,15.029,15.029,0,0,0,4.8,3.392,2.945,2.945,0,0,0,1.2.255,3.08,3.08,0,0,0,2.837-1.97,3.285,3.285,0,0,0-1.636-4.229,8.91,8.91,0,0,1-2.847-2.013,9.388,9.388,0,0,1-1.919-2.982h0v0a9.845,9.845,0,0,1,0-7.3,9.4,9.4,0,0,1,1.92-2.984,8.922,8.922,0,0,1,2.847-2.012,8.535,8.535,0,0,1,3.484-.737c.293,0,.583.015.871.044a16.536,16.536,0,0,0,.129,5.969,15.326,15.326,0,0,0-2.317,1.99,3.337,3.337,0,0,0,0,4.563,2.979,2.979,0,0,0,4.353,0A8.915,8.915,0,0,1,27.4,24.248a8.54,8.54,0,0,1,3.484-.736h5.882a5.044,5.044,0,0,0,4.1,2.151,5.258,5.258,0,0,0,5.131-5.377,5.258,5.258,0,0,0-5.131-5.377,5.044,5.044,0,0,0-4.1,2.151H30.879a14.532,14.532,0,0,0-2.509.221c-.027-.3-.042-.606-.042-.913a9.714,9.714,0,0,1,.7-3.65h0v0a9.4,9.4,0,0,1,1.92-2.983A8.924,8.924,0,0,1,33.8,7.72a8.545,8.545,0,0,1,3.484-.736H46.67l5.853,6.135h0a3.09,3.09,0,0,0,.224.213c.035.029.071.055.107.083s.088.072.135.1.088.057.132.084.084.054.127.079.091.046.137.069.09.046.136.066.09.035.136.052.1.039.148.055.091.025.137.037.1.029.155.04.106.017.161.025.091.016.136.021a3.035,3.035,0,0,0,.3.016h6.566a5.046,5.046,0,0,0,4.1,2.151,5.258,5.258,0,0,0,5.13-5.377,5.258,5.258,0,0,0-5.13-5.377,5.044,5.044,0,0,0-4.1,2.151h-5.29L50.121,1.476v0c-.071-.074-.147-.145-.225-.213-.034-.029-.07-.054-.1-.081s-.09-.073-.137-.106-.085-.055-.129-.082S49.44.936,49.4.911s-.087-.044-.132-.066S49.17.8,49.121.776s-.084-.033-.127-.048-.1-.041-.158-.058-.084-.022-.126-.034S48.6.6,48.545.593,48.451.579,48.4.571s-.1-.018-.157-.024c-.079-.008-.159-.011-.238-.013-.021,0-.042,0-.063,0H37.282Z" transform="translate(0 -0.531)"/>
    </clipPath>
    <linearGradient id="linear-gradient" x1="-0.65" y1="1.657" x2="-0.648" y2="1.657" gradientUnits="objectBoundingBox">
      <stop offset="0" stop-color="#ff007e"/>
      <stop offset="1" stop-color="#9500ba"/>
    </linearGradient>
  </defs>
  <g id="ML_icon" data-name="ML icon" transform="translate(-26 -45.531)">
    <g id="Group_2" data-name="Group 2" transform="translate(26 45.531)" clip-path="url(#clip-path)">
      <path id="Path_3" data-name="Path 3" d="M-96.9-22.547l71.139-93.822L65.694-40.194-5.445,53.628Z" transform="translate(60.579 70.446)" fill="url(#linear-gradient)"/>
    </g>
  </g>
</svg>
