<svg xmlns="http://www.w3.org/2000/svg" width="86.4" height="86.4" viewBox="0 0 86.4 86.4">
  <g id="network-connection" transform="translate(0 -0.128)">
    <path id="Path_10" data-name="Path 10" d="M65.33,41.689a9.189,9.189,0,0,0-3.088,12.117A54.478,54.478,0,0,1,32.427,71.028a9.09,9.09,0,0,0-6.92-3.483,54.448,54.448,0,0,1-3.441-18.483A55.055,55.055,0,0,1,34.02,14.244a8.98,8.98,0,0,0,2.746.47A9.055,9.055,0,0,0,42.8,12.382,55.288,55.288,0,0,1,65.33,41.689ZM45.953,5.446a9.469,9.469,0,0,1-.287,2.2A60.876,60.876,0,0,1,70.64,40.227c.157.008.3.036.463.05A55.113,55.113,0,0,0,76.29,16.5c-.008-.523-.05-1.04-.063-1.559A43.026,43.026,0,0,0,50.728.128a57,57,0,0,0-5.046,3.163A9.7,9.7,0,0,1,45.953,5.446ZM20.2,69.082a60.379,60.379,0,0,1,9.283-58.037,9.232,9.232,0,0,1-1.9-5.476c-1.514-.414-3.044-.781-4.6-1.07A43.723,43.723,0,0,0,10.017,70.839a55.5,55.5,0,0,0,7.453,1.115A9.174,9.174,0,0,1,20.2,69.082ZM81.487,22.856a60.89,60.89,0,0,1-5.255,19.573,9.217,9.217,0,0,1-2.724,15.684c0,.206.028.406.028.614a60.772,60.772,0,0,1-2.617,17.635A43.71,43.71,0,0,0,81.487,22.856ZM66.157,57.684A60.023,60.023,0,0,1,34.414,76.276c.006.172.05.342.05.523a9.258,9.258,0,0,1-1.34,4.762A56.131,56.131,0,0,0,36.8,86a43.712,43.712,0,0,0,6.4.525,42.755,42.755,0,0,0,19.8-4.87A55.17,55.17,0,0,0,68.013,58.73c0-.114-.017-.22-.017-.331A10.065,10.065,0,0,1,66.157,57.684Z" transform="translate(0 0)" fill="#00acd8"/>
  </g>
</svg>
