<?xml version="1.0" standalone="no"?>
<!DOCTYPE svg PUBLIC "-//W3C//DTD SVG 20010904//EN"
 "http://www.w3.org/TR/2001/REC-SVG-20010904/DTD/svg10.dtd">
<svg version="1.0" xmlns="http://www.w3.org/2000/svg"
 width="1226.000000pt" height="788.000000pt" viewBox="0 0 1226.000000 788.000000"
 preserveAspectRatio="xMidYMid meet">

<g transform="translate(0.000000,788.000000) scale(0.100000,-0.100000)"
fill="#000000" stroke="none">
<path d="M8 7863 c-2 -5 -3 -1775 -3 -3935 l0 -3928 6125 0 6125 0 0 3933 0
3932 -6122 3 c-3368 1 -6124 -1 -6125 -5z m10752 -219 c71 -29 102 -122 65
-194 -17 -33 -32 -37 -61 -15 -26 20 -33 19 -27 -5 7 -25 -5 -25 -37 0 -15 11
-19 20 -11 20 16 0 65 50 57 58 -3 3 -15 -3 -25 -12 -23 -21 -44 -12 -36 15 4
11 2 19 -4 19 -6 0 -11 -11 -11 -25 0 -27 -36 -75 -56 -75 -22 0 -44 43 -44
86 0 51 33 103 80 126 43 22 59 22 110 2z m-9175 -44 c-3 -5 -10 -10 -16 -10
-5 0 -9 5 -9 10 0 6 7 10 16 10 8 0 12 -4 9 -10z m-465 -45 c16 -19 5 -34 -12
-17 -18 18 -56 14 -68 -7 -14 -27 -3 -50 28 -58 26 -6 37 3 85 71 30 43 107
29 107 -19 0 -22 -4 -25 -40 -25 -22 0 -40 5 -40 10 0 6 14 10 31 10 38 0 35
24 -3 28 -19 2 -31 -4 -45 -24 -54 -79 -96 -94 -132 -48 -26 33 -26 49 -1 74
24 24 72 26 90 5z m265 -7 c17 -25 20 -83 6 -93 -6 -3 -11 13 -13 36 -3 49
-27 71 -55 53 -12 -7 -19 -26 -21 -53 -4 -58 -22 -41 -22 22 l0 53 45 2 c36 1
47 -3 60 -20z m145 -54 c0 -52 -4 -75 -15 -84 -19 -16 -63 -16 -78 -1 -9 9 -3
10 21 5 34 -7 62 8 62 33 0 11 -7 13 -26 9 -38 -10 -74 17 -74 54 0 41 24 61
71 58 l39 -3 0 -71z m47 -16 c-2 -18 -4 -4 -4 32 0 36 2 50 4 33 2 -18 2 -48
0 -65z m125 81 c14 -7 18 -21 17 -57 l-2 -47 -6 39 c-12 78 -71 74 -82 -5 -3
-24 -7 -33 -8 -19 0 14 -4 41 -7 60 -6 36 -6 36 32 37 21 1 47 -3 56 -8z m140
-6 c33 -29 22 -43 -32 -43 -54 0 -59 -4 -33 -32 9 -10 12 -18 7 -18 -18 0 -34
24 -34 51 0 52 54 77 92 42z m3203 7 c3 -5 -3 -10 -14 -10 -29 0 -26 -14 4
-28 29 -13 31 -24 10 -42 -12 -10 -21 -10 -38 -2 -21 10 -21 11 6 11 27 1 40
21 13 21 -7 0 -20 7 -27 16 -11 14 -10 18 6 30 22 17 32 17 40 4z m-482 -37
c8 -21 13 -40 10 -43 -3 -3 -8 1 -10 8 -6 15 -35 16 -51 0 -16 -16 -15 -8 3
36 8 20 19 36 24 36 5 0 16 -17 24 -37z m616 19 c20 3 23 -2 25 -34 2 -31 0
-36 -11 -27 -7 6 -13 20 -13 30 0 11 -5 19 -10 19 -16 0 -26 -33 -12 -38 7 -2
12 -8 12 -13 0 -20 -28 4 -33 29 -6 31 2 59 13 43 3 -6 17 -10 29 -9z m-234
-35 c1 -28 -1 -34 -10 -27 -14 12 -25 56 -17 65 13 13 25 -3 27 -38z m-310 22
c4 -6 0 -9 -11 -7 -11 2 -20 -4 -22 -14 -2 -13 3 -18 19 -18 16 0 20 -3 13
-10 -16 -16 -44 0 -44 24 0 13 3 26 7 29 10 10 31 8 38 -4z m60 1 c3 -5 -3
-10 -14 -10 -28 0 -27 -18 1 -29 15 -5 18 -10 9 -15 -24 -15 -55 36 -34 57 10
10 31 8 38 -3z m65 -9 c7 -15 6 -23 -6 -35 -8 -9 -17 -16 -19 -16 -2 0 -11 7
-19 16 -18 18 -6 54 19 54 8 0 19 -9 25 -19z m43 -28 c6 2 14 14 18 28 6 22 7
21 8 -7 1 -18 -5 -34 -11 -36 -25 -9 -38 4 -37 35 2 31 2 31 6 4 3 -16 10 -26
16 -24z m94 12 c2 -25 1 -26 -5 -7 -4 13 -11 23 -17 23 -5 0 -13 -10 -17 -23
-5 -20 -6 -19 -7 8 -1 26 3 31 22 30 17 -1 22 -8 24 -31z m221 12 c2 -12 -3
-17 -20 -18 -23 -1 -23 -1 2 -8 15 -4 20 -10 13 -14 -28 -18 -60 32 -36 57 12
12 38 2 41 -17z m180 10 c14 -11 16 -47 2 -47 -5 0 -10 9 -10 20 0 11 -4 20
-10 20 -5 0 -10 -9 -10 -20 0 -11 -4 -20 -10 -20 -5 0 -10 13 -10 28 0 30 22
39 48 19z m80 -26 c-4 -40 -31 -63 -50 -42 -11 12 -10 13 4 8 10 -3 20 -2 23
2 2 5 -4 11 -15 14 -11 3 -20 14 -20 24 0 26 8 33 37 31 21 -2 24 -7 21 -37z
m58 27 c5 -8 2 -9 -9 -5 -10 3 -17 2 -17 -2 0 -5 7 -11 15 -15 8 -3 15 -10 15
-15 0 -14 -32 -23 -44 -11 -7 7 -4 10 9 10 18 0 18 0 -1 15 -16 13 -17 16 -4
25 20 13 27 13 36 -2z m-196 -23 c0 -14 -4 -25 -10 -25 -5 0 -10 11 -10 25 0
14 5 25 10 25 6 0 10 -11 10 -25z m-4065 -25 c9 -14 48 -13 63 2 9 9 12 9 12
0 0 -22 -47 -37 -75 -24 -14 6 -25 16 -25 22 0 13 17 13 25 0z m665 -10 c-8
-5 -19 -10 -25 -10 -5 0 -3 5 5 10 8 5 20 10 25 10 6 0 3 -5 -5 -10z m103
-685 c-3 -9 -8 -14 -10 -11 -3 3 -2 9 2 15 9 16 15 13 8 -4z m204 -17 c-3 -8
-6 -5 -6 6 -1 11 2 17 5 13 3 -3 4 -12 1 -19z m8410 -35 c-3 -10 -5 -2 -5 17
0 19 2 27 5 18 2 -10 2 -26 0 -35z m50 0 c-3 -10 -5 -2 -5 17 0 19 2 27 5 18
2 -10 2 -26 0 -35z m393 27 c0 -5 -2 -10 -4 -10 -3 0 -8 5 -11 10 -3 6 -1 10
4 10 6 0 11 -4 11 -10z m-363 -32 c-3 -7 -5 -2 -5 12 0 14 2 19 5 13 2 -7 2
-19 0 -25z m80 0 c-3 -7 -5 -2 -5 12 0 14 2 19 5 13 2 -7 2 -19 0 -25z m-8884
2 c3 -11 1 -18 -4 -14 -5 3 -9 12 -9 20 0 20 7 17 13 -6z m9134 -2 c-3 -8 -6
-5 -6 6 -1 11 2 17 5 13 3 -3 4 -12 1 -19z m-2212 -698 c4 -11 11 -18 16 -15
5 4 9 2 9 -4 0 -18 -18 -21 -25 -3 -7 15 -9 14 -15 -8 -7 -22 -8 -21 -9 13 -1
40 13 50 24 17z m44 -17 c-1 -38 -1 -38 -9 -9 -8 27 -6 46 6 46 2 0 4 -17 3
-37z m220 -17 c-2 -20 -2 -20 -6 2 -2 12 -9 22 -14 22 -5 0 -14 -10 -19 -22
-8 -20 -9 -18 -9 15 l-1 37 25 -16 c15 -10 24 -25 24 -38z m1548 2 c-2 -13 -4
-5 -4 17 -1 22 1 32 4 23 2 -10 2 -28 0 -40z m52 15 c0 -29 -2 -33 -8 -18 -7
18 -4 55 5 55 2 0 4 -17 3 -37z m-1664 -8 c0 -14 -1 -25 -2 -25 -7 0 -20 45
-16 53 8 13 16 -1 18 -28z m1775 28 c0 -5 -5 -15 -10 -23 -8 -12 -10 -11 -10
8 0 12 5 22 10 22 6 0 10 -3 10 -7z m-1870 -28 c0 -29 -34 -36 -44 -9 -8 21 1
34 25 34 14 0 19 -7 19 -25z m59 -2 c-2 -24 -2 -25 -6 -5 -2 12 -8 22 -13 22
-5 0 -11 -10 -13 -22 -4 -20 -4 -19 -6 5 -1 21 4 27 19 27 15 0 20 -6 19 -27z
m1866 17 c3 -6 -1 -7 -9 -4 -11 4 -16 0 -16 -11 0 -12 5 -15 18 -10 14 5 15 4
5 -6 -17 -17 -38 3 -30 25 7 18 23 21 32 6z m38 -10 c-3 -11 -7 -20 -9 -20 -2
0 -4 9 -4 20 0 11 4 20 9 20 5 0 7 -9 4 -20z m49 -29 c-4 -11 -7 -10 -13 5
-12 29 -10 36 5 22 7 -7 11 -19 8 -27z m-177 8 c-4 -5 -12 -9 -18 -8 -9 0 -8
2 1 6 6 2 9 10 6 15 -4 7 -2 8 5 4 6 -4 9 -12 6 -17z m-6941 -625 c76 -201
136 -368 133 -370 -5 -6 -42 83 -163 395 l-99 254 -5 -144 -6 -144 -2 168 c-1
92 -5 167 -10 167 -4 0 -67 -60 -140 -133 l-132 -132 -2 -130 -2 -130 -6 119
-5 118 -133 -211 c-74 -116 -136 -211 -138 -211 -8 0 27 62 144 255 111 184
119 195 266 343 83 83 154 152 157 152 3 0 68 -165 143 -366z m6571 -1 c73
-193 135 -364 138 -380 10 -46 -26 41 -139 332 -145 376 -132 358 -135 185
l-3 -145 -6 166 -5 166 -137 -132 -138 -132 -2 -109 -2 -109 -5 96 -6 97 -118
-187 c-65 -102 -125 -195 -134 -206 -40 -51 5 31 124 225 121 197 131 210 267
348 77 78 147 141 155 140 9 -2 65 -139 146 -355z m-7692 91 l118 -17 126
-206 c153 -248 163 -270 162 -318 l-2 -38 -6 45 c-5 34 -36 91 -129 237 -67
106 -125 200 -128 208 -10 25 -23 17 -27 -17 -2 -18 -3 -11 -1 15 2 31 -1 50
-9 52 -7 3 -70 14 -140 25 l-129 19 -23 -22 c-13 -12 -80 -89 -150 -172 l-126
-149 -137 -73 c-75 -40 -141 -73 -147 -73 -5 0 54 36 132 80 l141 80 147 176
c142 170 148 176 179 170 17 -3 84 -13 149 -22z m3671 3 l129 -22 72 -115
c143 -232 196 -322 192 -326 -3 -3 -60 82 -127 188 -68 106 -126 195 -130 198
-3 3 -9 12 -12 21 -5 11 -36 20 -115 33 -59 9 -120 19 -135 22 l-28 6 -2 -124
-2 -123 -6 119 -5 119 -137 -166 -138 -165 -2 -79 -2 -78 -3 73 c-2 39 -6 72
-9 72 -2 0 -15 -6 -27 -14 -45 -28 -240 -126 -244 -123 -2 2 59 38 134 80
l138 77 143 175 c109 134 148 175 165 174 12 0 80 -10 151 -22z m2879 3 c73
-12 137 -26 143 -33 16 -16 259 -417 267 -440 4 -10 11 -16 15 -13 5 3 6 -9 3
-27 -5 -28 -6 -29 -9 -8 -4 24 -258 433 -274 439 -4 2 -8 10 -8 17 0 8 -5 17
-11 20 -8 6 -246 45 -271 45 -5 0 -9 -174 -10 -387 l-3 -388 -5 379 -5 379
-136 -165 c-123 -149 -136 -168 -133 -199 3 -32 3 -32 -4 -5 -4 17 -10 29 -15
28 -4 -1 -44 -20 -88 -43 -45 -22 -83 -38 -86 -36 -2 3 36 26 86 53 l90 47
143 178 c88 110 150 178 161 178 10 1 78 -8 150 -19z m-4087 -275 c57 -138
103 -254 101 -258 -3 -9 -25 40 -138 305 -30 70 -57 128 -61 128 -4 0 -8 -10
-11 -22 -2 -13 -3 -5 -3 17 1 22 -3 42 -8 45 -5 3 -55 -44 -111 -105 -57 -60
-108 -111 -114 -112 -9 -2 -197 -112 -256 -149 -18 -11 -34 -3 -155 81 l-135
94 -6 -37 -6 -37 -2 44 -1 43 -81 -73 c-161 -147 -203 -184 -193 -168 11 19
262 259 271 259 3 0 67 -44 142 -97 74 -54 138 -99 142 -101 4 -2 71 37 149
85 128 79 154 100 248 201 59 62 110 111 115 109 5 -1 56 -115 113 -252z
m2036 52 c56 -92 99 -169 96 -172 -2 -2 -47 63 -99 146 -93 149 -126 196 -132
188 -2 -2 -61 -96 -132 -209 -167 -267 -151 -244 -159 -225 -3 9 -2 13 4 10 6
-3 14 4 19 17 9 23 243 411 264 436 14 18 14 18 139 -191z m-695 86 c-3 -10
-5 -4 -5 12 0 17 2 24 5 18 2 -7 2 -21 0 -30z m1204 -47 c27 25 24 12 -4 -14
l-24 -22 -19 22 c-15 18 -16 20 -1 9 16 -12 17 -10 19 30 l1 44 4 -43 c4 -43
5 -44 24 -26z m119 22 l-25 -10 23 -9 c24 -9 30 -34 8 -42 -18 -7 -36 12 -36
38 0 27 8 35 34 34 19 0 18 -1 -4 -11z m77 -23 c2 -31 -11 -47 -33 -38 -12 5
-16 47 -6 66 10 19 37 0 39 -28z m63 20 c6 -8 9 -23 5 -34 -7 -22 -31 -35 -40
-21 -4 6 1 10 9 10 10 0 16 9 16 25 0 24 -10 32 -23 18 -4 -3 -1 -13 5 -22 10
-13 9 -13 -6 1 -19 17 -14 38 8 38 8 0 19 -7 26 -15z m78 8 c-22 -5 -24 -23
-3 -23 17 0 20 -35 4 -46 -6 -3 -16 -1 -22 5 -8 8 -6 11 6 11 9 0 17 5 17 10
0 6 -6 10 -14 10 -8 0 -18 5 -21 10 -10 16 4 30 28 29 17 -1 18 -2 5 -6z m63
-38 c-9 -30 -9 -30 -10 10 -1 25 2 36 9 29 6 -6 6 -21 1 -39z m58 8 c0 -33 -1
-35 -9 -15 -8 20 -4 52 6 52 2 0 4 -17 3 -37z m78 5 c2 -30 -19 -53 -42 -44
-9 3 -15 18 -15 41 0 34 2 36 27 33 22 -2 28 -9 30 -30z m-103 -19 c-6 -11
-24 -2 -24 11 0 5 7 7 15 4 8 -4 12 -10 9 -15z m2833 -120 c76 -55 140 -105
142 -111 3 -10 -89 51 -216 144 -29 21 -54 38 -57 38 -3 0 -7 -35 -9 -77 l-3
-78 -2 84 -2 83 -101 -93 c-133 -123 -187 -169 -169 -144 23 32 259 255 269
255 5 0 72 -45 148 -101z m-3259 84 c-15 -2 -42 -2 -60 0 -18 2 -6 4 27 4 33
0 48 -2 33 -4z m-27 -180 l-5 -48 -6 45 c-6 47 -3 63 8 56 4 -2 5 -26 3 -53z
m159 50 c0 -5 -10 -21 -21 -38 -19 -27 -20 -22 -3 19 3 9 -2 16 -13 19 -12 3
-9 5 10 6 15 0 27 -2 27 -6z m57 -9 c2 -7 -3 -19 -12 -28 -15 -15 -15 -16 0
-16 9 0 14 -4 11 -9 -3 -5 -15 -7 -27 -4 -20 6 -20 6 2 29 l22 24 -24 10 -24
10 24 -3 c14 -1 26 -7 28 -13z m86 -46 c-4 -8 -43 2 -43 11 0 4 8 18 17 31
l18 25 6 -30 c3 -16 4 -33 2 -37z m89 9 c-2 -4 -10 -3 -17 3 -10 8 -14 7 -18
-7 -3 -10 -5 0 -6 21 l-1 39 23 -24 c13 -13 22 -28 19 -32z m27 16 c0 -35 -1
-36 -10 -14 -5 14 -7 31 -5 38 10 24 16 13 15 -24z m69 1 c2 -22 -2 -33 -13
-38 -25 -9 -35 2 -35 40 0 31 3 35 23 32 17 -2 23 -11 25 -34z m2949 -76 c-3
-8 -6 -5 -6 6 -1 11 2 17 5 13 3 -3 4 -12 1 -19z m-5490 -79 l-4 -44 -1 49
c-2 45 -3 47 -19 35 -16 -13 -17 -12 -4 4 21 26 33 7 28 -44z m-3707 47 c0 -2
-8 -10 -17 -17 -16 -13 -17 -12 -4 4 13 16 21 21 21 13z m2047 -58 c-2 -13 -4
-5 -4 17 -1 22 1 32 4 23 2 -10 2 -28 0 -40z m6570 -10 c-2 -13 -4 -3 -4 22 0
25 2 35 4 23 2 -13 2 -33 0 -45z m-9170 -20 c-2 -13 -4 -3 -4 22 0 25 2 35 4
23 2 -13 2 -33 0 -45z m6592 -182 c13 -16 -1 -56 -19 -56 -33 0 -55 42 -33 63
11 12 40 8 52 -7z m-4572 -218 c-3 -7 -5 -2 -5 12 0 14 2 19 5 13 2 -7 2 -19
0 -25z m2530 10 c-3 -8 -6 -5 -6 6 -1 11 2 17 5 13 3 -3 4 -12 1 -19z m4040
-10 c-3 -8 -6 -5 -6 6 -1 11 2 17 5 13 3 -3 4 -12 1 -19z m580 -150 c-2 -13
-4 -3 -4 22 0 25 2 35 4 23 2 -13 2 -33 0 -45z m-7440 5 c-3 -10 -5 -4 -5 12
0 17 2 24 5 18 2 -7 2 -21 0 -30z m870 -10 c-3 -10 -5 -2 -5 17 0 19 2 27 5
18 2 -10 2 -26 0 -35z m-511 -30 c15 -32 69 -155 120 -273 l93 -215 3 100 2
100 5 -88 6 -88 125 222 c126 224 157 274 143 234 -16 -51 -276 -516 -286
-512 -6 2 -24 35 -40 73 -113 274 -205 504 -201 504 2 0 16 -26 30 -57z m1768
35 c-11 -13 -56 -65 -99 -116 -43 -51 -81 -91 -86 -90 -17 7 -179 218 -166
218 2 0 39 -43 82 -95 44 -52 83 -95 87 -95 4 0 26 21 50 47 107 117 141 153
146 153 3 0 -3 -10 -14 -22z m1557 -6 c6 9 9 9 9 1 0 -23 -19 -24 -60 -3 -22
11 -40 23 -40 25 0 3 19 -4 41 -16 34 -17 43 -18 50 -7z m-5332 -39 c-58 -55
-88 -79 -92 -71 -1 1 1 30 4 63 6 59 6 59 7 13 1 -27 5 -48 10 -48 4 0 32 23
62 50 76 68 83 63 9 -7z m1054 -218 c5 -15 24 8 125 149 51 71 92 126 92 121
0 -15 -195 -305 -205 -305 -11 0 -205 289 -205 305 0 9 187 -252 193 -270z
m567 255 c19 -11 31 -19 25 -19 -5 0 -26 8 -45 19 -19 11 -30 19 -25 19 6 0
26 -8 45 -19z m1709 -2 c-33 -64 -235 -378 -244 -378 -15 0 -559 339 -563 350
-2 6 52 -23 121 -64 150 -91 154 -93 160 -69 2 11 3 9 2 -5 -2 -18 20 -35 137
-106 134 -82 139 -84 148 -63 5 12 9 18 9 14 1 -5 53 71 117 167 109 164 141
208 113 154z m1595 -35 c-66 -104 -169 -252 -175 -253 -7 0 -169 241 -188 280
l-12 25 20 -25 c12 -14 56 -76 98 -139 l78 -113 6 53 5 54 5 -43 4 -44 79 114
c80 114 106 148 113 148 2 0 -13 -26 -33 -57z m475 53 c-2 -2 -15 -9 -29 -15
-24 -11 -24 -11 -6 3 16 13 49 24 35 12z m1158 -61 c-37 -36 -71 -65 -76 -65
-13 0 -93 69 -116 100 -11 13 10 0 46 -30 l64 -53 6 54 6 54 1 -47 c1 -27 5
-48 10 -48 4 0 32 23 62 50 79 71 77 61 -3 -15z m1017 -133 c46 -66 60 -80 70
-70 7 7 48 64 91 125 87 126 129 171 66 72 -85 -133 -157 -234 -166 -233 -11
0 -205 282 -205 297 0 10 46 -51 144 -191z m1121 -124 c60 -140 92 -205 101
-201 7 2 72 112 145 244 72 132 134 237 137 235 2 -3 -60 -127 -139 -276 -112
-212 -145 -268 -155 -258 -6 7 -44 94 -84 193 -40 99 -90 223 -111 275 -22 52
-39 100 -38 105 0 14 40 -74 144 -317z m-2805 286 c0 -2 -9 0 -20 6 -11 6 -20
13 -20 16 0 2 9 0 20 -6 11 -6 20 -13 20 -16z m2310 11 c14 -8 21 -14 15 -14
-5 0 -21 6 -35 14 -14 8 -20 14 -15 14 6 0 21 -6 35 -14z m55 5 c-3 -5 -12
-10 -18 -10 -7 0 -6 4 3 10 19 12 23 12 15 0z m-2315 -5 c0 -2 -10 -9 -22 -15
-22 -11 -22 -10 -4 4 21 17 26 19 26 11z m3300 -105 c65 -38 121 -70 124 -70
3 0 7 24 8 53 l1 52 6 -60 6 -59 130 -78 c72 -42 133 -77 137 -78 4 0 9 12 11
28 2 16 4 9 4 -16 0 -28 -4 -41 -12 -39 -6 3 -116 69 -245 148 -129 78 -254
153 -277 166 -42 24 -58 41 -28 29 9 -3 69 -37 135 -76z m-443 -343 c-2 -23
-3 -1 -3 48 0 50 1 68 3 42 2 -26 2 -67 0 -90z m-8913 -1796 c3 -5 -2 -8 -11
-7 -12 1 -20 -9 -24 -29 -6 -28 -7 -28 -8 -4 -1 35 29 64 43 40z m68 -43 c3
-33 1 -38 -17 -38 -15 0 -16 3 -7 9 8 4 13 21 12 37 -4 64 6 57 12 -8z m102
45 c-18 -3 -22 -11 -22 -39 0 -20 -3 -38 -6 -41 -3 -4 -6 12 -6 34 0 46 5 54
34 52 21 -2 21 -2 0 -6z m245 -7 c8 -10 6 -19 -9 -39 l-20 -26 22 -4 c20 -4
19 -4 -4 -6 -33 -1 -34 3 -7 37 19 25 19 27 3 39 -10 7 -13 13 -7 13 6 0 16
-6 22 -14z m143 -38 c3 -33 1 -38 -17 -38 -15 0 -16 3 -7 9 8 4 13 21 12 37
-4 64 6 57 12 -8z m88 43 c0 -4 -11 -6 -25 -3 -14 2 -25 6 -25 8 0 2 11 4 25
4 14 0 25 -4 25 -9z m-368 -36 c2 -19 0 -35 -4 -35 -4 0 -8 16 -8 35 0 19 2
35 4 35 2 0 6 -16 8 -35z m215 13 c-3 -8 -6 -5 -6 6 -1 11 2 17 5 13 3 -3 4
-12 1 -19z m-480 -20 c-3 -8 -6 -5 -6 6 -1 11 2 17 5 13 3 -3 4 -12 1 -19z
m216 15 c-7 -2 -13 -13 -13 -23 0 -10 6 -21 13 -23 7 -4 8 -6 1 -6 -6 -1 -17
6 -24 14 -10 12 -10 18 0 30 7 8 18 15 24 14 7 0 6 -2 -1 -6z m395 -18 c-6
-14 -13 -23 -15 -21 -5 5 15 46 22 46 3 0 -1 -11 -7 -25z m-153 -25 c7 0 16 5
18 10 3 6 4 5 3 -2 -2 -7 -11 -13 -21 -13 -10 0 -19 6 -21 13 -1 7 0 8 3 2 2
-5 11 -10 18 -10z m-470 0 c-3 -5 -12 -10 -18 -10 -7 0 -6 4 3 10 19 12 23 12
15 0z m7758 -557 c-7 -2 -14 -21 -14 -41 -2 -34 -2 -34 -6 -7 -2 17 -12 36
-21 43 -13 10 -11 12 19 11 19 0 28 -3 22 -6z m157 -23 c22 0 34 -28 20 -46
-6 -7 -20 -12 -31 -11 -16 1 -19 9 -18 47 1 25 3 37 6 28 2 -10 13 -18 23 -18z
m200 -5 c0 -5 -4 -3 -10 5 -8 12 -10 12 -16 -4 -4 -10 -2 -21 4 -25 6 -4 0
-11 -14 -18 -29 -14 -29 -13 -3 39 16 31 23 38 30 27 5 -8 9 -18 9 -24z m114
-19 c1 -19 -2 -32 -5 -28 -12 12 -15 81 -3 69 3 -3 7 -22 8 -41z m-431 -23 c6
2 14 14 18 28 6 22 7 21 8 -7 1 -26 -3 -31 -21 -30 -17 1 -23 7 -24 26 -1 23
-1 23 3 2 3 -13 10 -21 16 -19z m71 39 c-7 -4 -14 -18 -17 -32 -4 -21 -4 -20
-6 8 -1 24 3 32 17 32 11 0 13 -3 6 -8z m136 -8 c11 -12 10 -18 -3 -32 -16
-15 -18 -15 -33 0 -19 18 -12 48 9 48 8 0 20 -7 27 -16z m164 1 c-19 -15 -19
-15 0 -30 11 -8 15 -15 9 -15 -17 0 -36 28 -29 45 3 8 13 15 23 15 15 0 15 -2
-3 -15z m93 -32 c-3 -10 -5 -2 -5 17 0 19 2 27 5 18 2 -10 2 -26 0 -35z m31
22 c-3 -3 -9 2 -12 12 -6 14 -5 15 5 6 7 -7 10 -15 7 -18z m31 -5 c-10 -28
-29 -41 -29 -20 0 6 4 10 9 10 5 0 11 9 14 20 3 11 8 20 11 20 3 0 0 -13 -5
-30z m49 23 c-10 -2 -18 -13 -18 -23 0 -10 8 -21 18 -23 16 -4 16 -5 -1 -6
-10 0 -20 6 -23 14 -9 23 3 45 23 44 17 -1 17 -2 1 -6z m-238 -48 c0 -5 -5 -3
-10 5 -5 8 -10 20 -10 25 0 6 5 3 10 -5 5 -8 10 -19 10 -25z m-6642 -277 c25
-25 8 -78 -25 -78 -22 0 -37 44 -24 69 13 24 31 27 49 9z m62 -27 c0 -22 5
-42 13 -44 6 -3 1 -6 -13 -6 -23 -1 -25 2 -23 41 2 52 1 48 13 48 6 0 10 -18
10 -39z m115 -6 c0 -36 -3 -40 -25 -40 -27 0 -36 20 -26 61 5 19 12 25 29 22
18 -3 22 -9 22 -43z m76 21 c20 -43 -18 -85 -49 -54 -25 25 -8 78 25 78 7 0
18 -11 24 -24z m154 -21 c0 -36 -3 -40 -25 -40 -27 0 -36 20 -26 61 5 19 12
25 29 22 18 -3 22 -9 22 -43z m73 22 c2 -10 -4 -27 -13 -37 -16 -17 -15 -19 7
-23 18 -3 15 -5 -9 -6 -39 -1 -41 5 -12 35 23 25 18 47 -8 37 -11 -4 -14 -3
-9 6 11 17 40 9 44 -12z m108 -1 c10 -41 1 -61 -26 -61 -20 0 -26 6 -28 28 -5
40 4 57 27 57 13 0 23 -9 27 -24z m69 -21 c0 -31 -4 -41 -19 -43 -32 -7 -50
50 -24 76 24 24 43 9 43 -33z m114 31 c9 -11 8 -18 -4 -30 -9 -9 -23 -16 -30
-16 -7 0 -16 -8 -18 -17 -3 -10 -5 3 -6 30 -1 43 1 47 23 47 13 0 29 -6 35
-14z m41 6 c0 -5 6 -17 14 -27 14 -19 15 -19 27 8 18 40 29 33 29 -18 0 -25
-4 -45 -10 -45 -5 0 -10 10 -10 23 -1 20 -2 21 -14 4 -13 -16 -14 -16 -30 5
-16 23 -16 23 -11 1 3 -12 1 -24 -5 -28 -6 -4 -10 10 -10 39 0 25 5 46 10 46
6 0 10 -4 10 -8z m980 -31 c0 -22 5 -42 13 -44 6 -3 1 -6 -13 -6 -23 -1 -25 2
-23 41 2 52 1 48 13 48 6 0 10 -18 10 -39z m85 -6 c0 -36 -3 -40 -25 -40 -27
0 -36 20 -26 61 5 19 12 25 29 22 18 -3 22 -9 22 -43z m106 -16 c6 -3 3 -11
-6 -19 -10 -8 -15 -9 -15 -1 0 6 -9 11 -20 11 -25 0 -25 4 3 41 l22 31 3 -28
c2 -16 8 -32 13 -35z m49 49 c-25 -10 -25 -10 -4 -18 28 -11 36 -24 28 -44 -7
-18 -54 -22 -54 -6 0 6 7 10 16 8 10 -2 19 3 21 10 3 7 -4 12 -16 12 -16 0
-21 6 -21 25 0 21 5 25 28 24 l27 0 -25 -11z m96 0 c5 -7 2 -9 -9 -5 -9 3 -21
-1 -29 -10 -11 -14 -11 -16 4 -10 20 7 42 -17 34 -39 -10 -27 -51 -13 -54 19
-5 44 34 77 54 45z m104 7 c0 -13 -42 -86 -46 -82 -3 3 2 19 10 36 20 38 20
39 -6 44 -17 3 -14 5 10 6 17 0 32 -1 32 -4z m80 0 c0 -15 -42 -85 -50 -85 -6
0 -1 18 10 39 l20 40 -23 4 c-16 3 -13 5 11 6 17 0 32 -1 32 -4z m1239 -8 c8
-10 7 -19 -4 -33 -19 -25 -19 -32 3 -37 9 -3 2 -5 -15 -6 -39 -1 -41 5 -12 35
23 25 18 47 -8 37 -11 -4 -14 -3 -9 5 10 16 31 15 45 -1z m74 -69 c-2 -4 -14
-2 -26 5 -12 6 -24 13 -26 14 -2 1 7 17 20 35 l24 33 6 -40 c4 -22 5 -43 2
-47z m103 67 c4 -8 -1 -26 -10 -39 -14 -23 -14 -25 2 -29 10 -3 6 -5 -10 -6
-31 -1 -36 10 -13 29 8 7 15 21 15 32 0 15 -5 18 -21 13 -15 -5 -19 -4 -15 4
10 16 46 13 52 -4z m54 3 c-25 -10 -25 -10 -4 -18 28 -11 36 -24 28 -44 -7
-18 -54 -22 -54 -6 0 6 7 10 16 8 10 -2 19 3 21 10 3 7 -4 12 -16 12 -16 0
-21 6 -21 25 0 21 5 25 28 24 l27 0 -25 -11z m96 0 c5 -7 2 -9 -9 -5 -9 3 -21
-1 -29 -10 -11 -14 -11 -16 4 -10 20 7 42 -17 34 -39 -10 -27 -51 -13 -54 19
-5 44 34 77 54 45z m87 5 c-20 -4 -35 -35 -15 -32 24 4 33 -3 30 -23 -3 -25
-34 -36 -51 -19 -9 9 -5 11 12 9 13 -2 26 3 28 10 3 7 -5 12 -21 12 -19 0 -26
5 -26 18 0 25 9 32 39 31 24 -2 24 -2 4 -6z m89 -28 c4 -37 -9 -71 -19 -47 -2
6 -11 12 -19 12 -18 0 -18 6 3 41 23 38 30 37 35 -6z m1240 27 c-28 -8 -30
-24 -6 -32 16 -6 15 -7 -5 -13 -13 -3 -20 -10 -17 -16 4 -5 2 -12 -4 -16 -6
-4 -10 11 -10 39 0 45 0 46 33 45 27 -1 29 -2 9 -7z m261 1 c-13 -2 -23 -11
-23 -19 0 -8 10 -15 23 -15 l22 -2 -22 -4 c-15 -3 -23 -12 -23 -25 0 -12 -3
-18 -7 -15 -5 6 -8 59 -4 82 1 3 13 4 29 4 23 -2 24 -2 5 -6z m157 -3 c0 -5
-2 -10 -4 -10 -3 0 -8 5 -11 10 -3 6 -1 10 4 10 6 0 11 -4 11 -10z m1323 -22
c16 -2 22 -10 22 -28 0 -20 -6 -26 -27 -28 -27 -3 -28 -2 -27 45 1 26 3 40 6
31 2 -9 14 -18 26 -20z m83 20 c5 -7 9 -26 9 -43 0 -25 -4 -30 -27 -33 -16 -2
-28 1 -28 6 0 6 9 8 20 5 14 -4 20 0 20 11 0 9 -5 16 -11 16 -8 0 -9 4 0 13
13 17 4 28 -17 20 -10 -4 -13 -2 -8 5 9 16 31 15 42 0z m83 -26 c7 -23 6 -34
-5 -43 -9 -7 -14 -8 -14 -1 0 6 -9 12 -20 14 -19 3 -19 3 2 36 23 37 25 37 37
-6z m163 -39 c-3 -9 -9 -9 -25 0 -12 7 -24 13 -26 14 -2 1 7 17 20 35 l24 33
5 -35 c4 -19 4 -40 2 -47z m54 57 c0 -11 -4 -20 -8 -20 -4 0 -8 -12 -9 -27 -1
-25 -2 -25 -9 7 -5 22 -5 40 2 47 15 19 24 16 24 -7z m74 15 c0 -15 -42 -85
-50 -85 -6 0 -1 18 10 39 l20 40 -23 4 c-16 3 -13 5 11 6 17 0 32 -1 32 -4z
m62 -71 c-2 -9 -9 -9 -28 0 -29 14 -30 16 -1 52 l22 29 5 -35 c4 -19 4 -40 2
-46z m108 64 c0 -18 -40 -82 -46 -75 -3 3 2 19 10 36 20 38 20 39 -6 44 -17 3
-14 5 10 6 20 0 32 -4 32 -11z m50 0 c-25 -10 -25 -10 -4 -18 30 -12 38 -28
24 -45 -14 -16 -50 -20 -50 -6 0 5 7 8 16 7 9 0 19 5 21 12 3 7 -4 12 -16 12
-16 0 -21 6 -21 25 0 21 5 25 28 24 l27 0 -25 -11z m156 0 c5 -7 9 -26 9 -43
0 -27 -3 -30 -30 -30 -27 0 -30 3 -30 30 0 34 11 55 30 55 7 0 16 -6 21 -12z
m-2405 -5 c4 -46 2 -72 -6 -70 -12 4 -23 47 -17 65 5 13 22 17 23 5z m-4941
-17 c0 -3 -4 -8 -10 -11 -5 -3 -10 -1 -10 4 0 6 5 11 10 11 6 0 10 -2 10 -4z
m4840 -26 c0 -23 -5 -30 -19 -30 -21 0 -37 17 -26 28 3 3 11 0 16 -8 9 -12 10
-12 5 3 -3 10 0 17 7 18 7 0 3 4 -8 9 -19 8 -19 9 3 9 18 1 22 -4 22 -29z m47
23 c-18 -5 -17 -6 2 -20 25 -17 19 -33 -12 -32 -21 0 -21 1 -2 9 18 7 19 8 3
15 -26 10 -22 35 5 34 18 -1 19 -2 4 -6z m193 -19 c0 -14 4 -23 10 -19 6 3 10
15 10 26 0 10 5 19 10 19 6 0 10 -14 10 -31 0 -27 -3 -30 -27 -27 -22 2 -29 9
-31 31 -2 15 1 27 7 27 6 0 11 -12 11 -26z m110 -4 c0 -16 -4 -30 -10 -30 -5
0 -10 11 -10 25 0 14 -4 25 -10 25 -5 0 -10 -11 -10 -25 0 -14 -4 -25 -10 -25
-5 0 -10 14 -10 30 0 27 3 30 30 30 27 0 30 -3 30 -30z m65 0 c0 -33 -40 -41
-50 -11 -9 28 2 43 28 39 16 -2 22 -10 22 -28z m35 5 c0 -14 5 -25 10 -25 6 0
10 11 10 25 0 14 5 25 10 25 6 0 10 -13 10 -30 0 -25 -4 -30 -24 -30 -23 0
-36 16 -36 46 0 8 5 14 10 14 6 0 10 -11 10 -25z m85 16 c-18 -7 -18 -8 -1
-18 21 -12 13 -33 -12 -33 -13 0 -14 2 -4 9 10 6 10 10 -2 21 -20 16 -11 30
17 29 21 0 21 -1 2 -8z m252 -3 c0 -7 -11 -14 -24 -14 -19 -2 -22 1 -12 12 14
17 36 18 36 2z m1121 -20 c3 -24 0 -28 -22 -28 -30 0 -36 27 -9 37 15 6 15 7
-3 15 -16 6 -15 7 6 5 19 -1 26 -8 28 -29z m530 -1 c3 -21 -1 -27 -17 -27 -21
0 -37 17 -26 28 3 3 11 0 16 -8 9 -12 10 -12 5 3 -3 10 0 17 7 18 7 0 3 5 -8
10 l-20 9 20 -3 c14 -1 21 -11 23 -30z m-7471 7 c-3 -3 -12 -4 -19 -1 -8 3 -5
6 6 6 11 1 17 -2 13 -5z m-222 -24 c3 -5 1 -10 -4 -10 -6 0 -11 5 -11 10 0 6
2 10 4 10 3 0 8 -4 11 -10z m410 0 c3 -5 1 -10 -4 -10 -6 0 -11 5 -11 10 0 6
2 10 4 10 3 0 8 -4 11 -10z m1395 -6 c0 -8 -5 -12 -10 -9 -6 4 -8 11 -5 16 9
14 15 11 15 -7z m250 6 c0 -5 -4 -10 -10 -10 -5 0 -10 5 -10 10 0 6 5 10 10
10 6 0 10 -4 10 -10z m1500 -6 c0 -8 -5 -12 -10 -9 -6 4 -8 11 -5 16 9 14 15
11 15 -7z m250 6 c0 -5 -4 -10 -10 -10 -5 0 -10 5 -10 10 0 6 5 10 10 10 6 0
10 -4 10 -10z m3385 0 c3 -5 1 -10 -4 -10 -6 0 -11 5 -11 10 0 6 2 10 4 10 3
0 8 -4 11 -10z m295 0 c0 -5 -4 -10 -10 -10 -5 0 -10 5 -10 10 0 6 5 10 10 10
6 0 10 -4 10 -10z"/>
<path d="M10655 7562 c-19 -19 16 -30 43 -13 10 6 7 10 -12 13 -14 3 -28 3
-31 0z"/>
<path d="M10725 7550 c3 -5 10 -10 16 -10 5 0 9 5 9 10 0 6 -7 10 -16 10 -8 0
-12 -4 -9 -10z"/>
<path d="M1440 7530 c-15 -28 4 -60 35 -60 14 0 29 8 35 20 15 28 -4 60 -35
60 -14 0 -29 -8 -35 -20z"/>
<path d="M1778 7540 l-23 -19 48 -1 c49 0 54 10 17 30 -14 7 -24 5 -42 -10z"/>
<path d="M4530 7526 c0 -9 5 -16 10 -16 6 0 10 4 10 9 0 6 -4 13 -10 16 -5 3
-10 -1 -10 -9z"/>
<path d="M4726 7523 c-12 -12 -6 -33 9 -33 8 0 15 6 15 14 0 17 -14 28 -24 19z"/>
<path d="M5085 7520 c-3 -5 1 -10 10 -10 9 0 13 5 10 10 -3 6 -8 10 -10 10 -2
0 -7 -4 -10 -10z"/>
<path d="M5337 7514 c-8 -8 1 -24 14 -24 5 0 9 7 9 15 0 15 -12 20 -23 9z"/>
<path d="M8830 6005 c0 -8 5 -15 10 -15 6 0 10 7 10 15 0 8 -4 15 -10 15 -5 0
-10 -7 -10 -15z"/>
<path d="M7740 5260 c0 -5 7 -10 15 -10 8 0 15 5 15 10 0 6 -7 10 -15 10 -8 0
-15 -4 -15 -10z"/>
<path d="M7800 5290 c0 -5 7 -10 15 -10 8 0 15 5 15 10 0 6 -7 10 -15 10 -8 0
-15 -4 -15 -10z"/>
<path d="M7800 5260 c0 -5 7 -10 16 -10 8 0 12 5 9 10 -3 6 -10 10 -16 10 -5
0 -9 -4 -9 -10z"/>
<path d="M8130 5290 c0 -5 7 -10 15 -10 8 0 15 5 15 10 0 6 -7 10 -15 10 -8 0
-15 -4 -15 -10z"/>
<path d="M8130 5260 c0 -5 9 -10 21 -10 11 0 17 5 14 10 -3 6 -13 10 -21 10
-8 0 -14 -4 -14 -10z"/>
<path d="M7895 5060 c-3 -5 -1 -10 4 -10 6 0 11 5 11 10 0 6 -2 10 -4 10 -3 0
-8 -4 -11 -10z"/>
<path d="M8070 5080 c0 -5 7 -10 15 -10 8 0 15 5 15 10 0 6 -7 10 -15 10 -8 0
-15 -4 -15 -10z"/>
<path d="M8070 5050 c0 -5 7 -10 15 -10 8 0 15 5 15 10 0 6 -7 10 -15 10 -8 0
-15 -4 -15 -10z"/>
<path d="M9174 1389 c-10 -17 13 -36 27 -22 12 12 4 33 -11 33 -5 0 -12 -5
-16 -11z"/>
<path d="M9244 1389 c-10 -17 13 -36 27 -22 12 12 4 33 -11 33 -5 0 -12 -5
-16 -11z"/>
<path d="M2734 1067 c-7 -20 -2 -47 11 -50 14 -3 19 43 6 56 -7 7 -12 6 -17
-6z"/>
<path d="M2905 1061 c-6 -20 3 -51 15 -51 13 0 21 35 14 54 -8 21 -21 20 -29
-3z"/>
<path d="M2984 1067 c-7 -20 -2 -47 11 -50 14 -3 19 43 6 56 -7 7 -12 6 -17
-6z"/>
<path d="M3135 1061 c-6 -20 3 -51 15 -51 15 0 22 20 16 46 -8 29 -22 31 -31
5z"/>
<path d="M3315 1058 c-7 -27 -1 -48 14 -48 15 0 19 39 6 57 -12 17 -14 16 -20
-9z"/>
<path d="M3397 1074 c-4 -4 -7 -20 -7 -36 0 -35 23 -34 28 1 4 25 -10 46 -21
35z"/>
<path d="M3497 1074 c-13 -13 -7 -24 14 -24 11 0 19 5 17 12 -5 14 -22 21 -31
12z"/>
<path d="M4605 1061 c-6 -20 3 -51 15 -51 15 0 22 20 16 46 -8 29 -22 31 -31
5z"/>
<path d="M4715 1040 c-3 -5 -1 -10 4 -10 6 0 11 5 11 10 0 6 -2 10 -4 10 -3 0
-8 -4 -11 -10z"/>
<path d="M4860 1025 c0 -9 5 -15 11 -13 6 2 11 8 11 13 0 5 -5 11 -11 13 -6 2
-11 -4 -11 -13z"/>
<path d="M6360 1040 c0 -5 5 -10 10 -10 6 0 10 5 10 10 0 6 -4 10 -10 10 -5 0
-10 -4 -10 -10z"/>
<path d="M6610 1025 c0 -9 5 -15 11 -13 6 2 11 8 11 13 0 5 -5 11 -11 13 -6 2
-11 -4 -11 -13z"/>
<path d="M6785 1040 c-3 -5 -1 -10 4 -10 6 0 11 5 11 10 0 6 -2 10 -4 10 -3 0
-8 -4 -11 -10z"/>
<path d="M9785 1040 c-7 -12 2 -30 16 -30 5 0 9 9 9 20 0 21 -15 27 -25 10z"/>
<path d="M9935 1040 c-3 -5 -1 -10 4 -10 6 0 11 5 11 10 0 6 -2 10 -4 10 -3 0
-8 -4 -11 -10z"/>
<path d="M10100 1040 c0 -5 5 -10 10 -10 6 0 10 5 10 10 0 6 -4 10 -10 10 -5
0 -10 -4 -10 -10z"/>
<path d="M10290 1040 c0 -5 5 -10 10 -10 6 0 10 5 10 10 0 6 -4 10 -10 10 -5
0 -10 -4 -10 -10z"/>
<path d="M10605 1069 c-10 -15 3 -25 16 -12 7 7 7 13 1 17 -6 3 -14 1 -17 -5z"/>
<path d="M10606 1033 c-11 -11 -6 -23 9 -23 8 0 15 4 15 9 0 13 -16 22 -24 14z"/>
<path d="M8510 1030 c0 -13 5 -20 13 -17 6 2 12 10 12 17 0 7 -6 15 -12 18 -8
2 -13 -5 -13 -18z"/>
<path d="M10005 1020 c-3 -5 -1 -10 4 -10 6 0 11 5 11 10 0 6 -2 10 -4 10 -3
0 -8 -4 -11 -10z"/>
</g>
</svg>
